<svg version="1.1" id="Layer_1" xmlns="http://www.w3.org/2000/svg" xmlns:xlink="http://www.w3.org/1999/xlink" x="0" y="0" viewBox="0 0 1067.5 310.7" xml:space="preserve"><style>.st0{fill:#1778f2}.st1{fill:#f40009}.st2{fill:#353535}</style><path id="Path_50_00000061451575724495782800000017999762361112075934_" class="st0" d="M657.1 1551.9c-3.1-.5-6.2-1.5-8.9-3.1-.3-.2-.6-.1-.8.1l-37.7 37.7c-4.8 5.3-12.9 5.7-18.2.9-5.2-4.7-5.7-12.6-1.2-17.9l.3-.3.1-.1c.3-.3.5-.6.8-.8l37.4-37.4c.2-.2.2-.5 0-.7l-6.4-6.4c-.2-.2-.5-.2-.7 0l-37.4 37.4-.1.1-.2.2c-5.1 5-13.2 4.9-18.2-.2-4.8-4.9-4.9-12.8-.2-17.8l.4-.4 37.3-37.3c.2-.2.2-.5 0-.7l-6.4-6.4c-.2-.2-.5-.2-.7 0l-37.7 37.7c-9 9-9 23.5 0 32.5 4.3 4.3 10.1 6.7 16.2 6.7.8 0 1.7 0 2.5-.1-.1.8-.1 1.7-.1 2.5 0 12.7 10.3 23 23 23 6.1 0 11.9-2.4 16.2-6.7l41.1-41.1c.3-.3.3-.7 0-.9-.1-.4-.2-.5-.4-.5z"/><path id="Path_50-2_00000000207162407321728100000012837779580791035816_" class="st0" d="M553.1 1442c3.1.5 6.2 1.5 8.9 3.1.3.2.6.1.8-.1l37.7-37.7c4.8-5.3 12.9-5.7 18.2-.9 5.2 4.7 5.7 12.6 1.2 17.9l-.3.3-.1.1c-.3.3-.5.6-.8.8l-37.4 37.4c-.2.2-.2.5 0 .7l6.4 6.4c.2.2.5.2.7 0l37.4-37.4.1-.1.2-.2c5.1-5 13.2-4.9 18.2.2 4.8 4.9 4.9 12.8.2 17.8l-.4.4-37.3 37.3c-.2.2-.2.5 0 .7l6.4 6.4c.2.2.5.2.7 0l37.7-37.7c9-9 9-23.5 0-32.5-4.3-4.3-10.1-6.7-16.2-6.7-.8 0-1.7 0-2.5.1.1-.8.1-1.7.1-2.5 0-12.7-10.3-23-23-23-6.1 0-11.9 2.4-16.2 6.7l-41.1 41.1c-.3.3-.3.7 0 .9.1.4.3.5.4.5z"/><path id="Path_75_00000018920321266712551620000012971496291057768120_" class="st1" d="M660.1 1444.9c-.5 3.1-1.5 6.2-3.1 8.9-.2.3-.1.6.1.8l37.7 37.7c5.3 4.8 5.7 12.9.9 18.2l-.1.1c-4.3 5.2-12 6-17.3 1.6-.3-.2-.6-.5-.9-.8l-.1-.1c-.3-.3-.6-.5-.8-.8l-37.4-37.4c-.2-.2-.5-.2-.7 0l-6.4 6.4c-.2.2-.2.5 0 .7l37.4 37.4.1.1.2.2c5 5.1 4.9 13.2-.2 18.2-4.9 4.8-12.8 4.9-17.8.2l-.4-.4-34.2-34.2-13.6-13.6-37.7-37.7c-9-9-23.5-9-32.5 0-4.3 4.3-6.7 10.1-6.7 16.2 0 .8 0 1.7.1 2.5-.8-.1-1.7-.1-2.5-.1-12.7 0-23 10.3-23 23 0 6.1 2.4 11.9 6.7 16.2l41.1 41.1c.3.3.7.3.9 0 .1-.1.2-.2.2-.4.5-3.1 1.5-6.2 3.1-8.9.2-.3.1-.6-.1-.8l-37.7-37.7c-5.3-4.8-5.7-12.9-.9-18.2 4.8-4.8 12.5-5.3 18-1.1l.2.2.1.1c.3.3.6.5.8.8l37.4 37.4c.2.2.5.2.7 0l6.4-6.4c.2-.2.2-.5 0-.7l-37.4-37.4-.1-.1-.2-.2c-5-5.1-4.9-13.2.2-18.2 4.9-4.8 12.8-4.9 17.8-.2l.4.4 37.1 37.1 13.8 13.8 34.6 34.6c9 9 23.5 9 32.5 0 4.3-4.3 6.7-10.1 6.7-16.2 0-.8 0-1.7-.1-2.5.8.1 1.7.1 2.5.1 12.7 0 23-10.3 23-23 0-6.1-2.4-11.9-6.7-16.2l-41.1-41.1c-.3-.3-.7-.3-.9 0 0 .2-.1.3-.1.4z"/><path class="st0" d="M831.9 1441.4c-1.8 0-3.2.4-4.2 1.1s-1.9 1.8-2.7 3.4l-39.2 74.2-39.4-74.2c-.8-1.6-1.8-2.7-2.8-3.4-1-.7-2.4-1.1-4.1-1.1-4.1 0-6.2 2.2-6.2 6.5v98c0 4.3 2.1 6.5 6.2 6.5 4 0 6-2.2 6-6.5V1468l34.4 63.7c.6 1.3 1.4 2.2 2.3 2.9.9.7 2.1 1 3.6 1s2.7-.3 3.5-.9 1.6-1.6 2.3-3l34-63.9v78c0 4.3 2.1 6.5 6.2 6.5s6.2-2.2 6.2-6.5v-98c-.1-4.2-2.1-6.4-6.1-6.4zm88.8 70.1c0-11.4-2.9-20.5-8.7-27s-13.9-9.9-24-9.9c-7.1 0-13.4 1.6-18.8 4.9-5.4 3.2-9.7 7.9-12.8 13.8s-4.6 12.8-4.6 20.5c0 11.9 3.5 21.4 10.4 28.4 6.9 6.9 16.4 10.5 28.2 10.5 4.4 0 9-.7 13.7-2s8.8-3.3 12.1-5.7c2.2-1.5 3.4-3.3 3.3-5.3-.1-2-.9-3.5-2.6-4.5-1.7-1-3.8-.7-6.3.9-3.2 2.2-6.6 3.8-10 4.6-3.4.9-6.9 1.3-10.2 1.3-7.8 0-14-2.2-18.5-6.6-4.3-4.3-6.8-10.6-7.2-18.8h50.4c3.6 0 5.6-1.7 5.6-5.1zm-55.9-3.7c.8-6.9 3.1-12.5 7.1-16.7 4-4.3 9.5-6.5 16.4-6.5 6.5 0 11.6 2.1 15.1 6.2 3.5 4 5.4 9.8 5.8 17h-44.4zm127.4-66.4c-4.4 0-6.6 2.2-6.6 6.6v39.9c-2.2-3.9-5.3-7.1-9.4-9.4-4.5-2.6-9.7-3.9-15.6-3.9-6.7 0-12.6 1.6-17.6 4.7s-8.9 7.7-11.6 13.5c-2.7 5.8-4.1 12.8-4.1 20.8 0 7.9 1.4 14.8 4.1 20.6 2.7 5.8 6.6 10.4 11.6 13.6s10.9 4.8 17.6 4.8c5.9 0 11.1-1.3 15.6-4 4.1-2.4 7.3-5.6 9.5-9.7v6.5c0 4.5 2.2 6.8 6.5 6.8s6.5-2.3 6.5-6.8v-97.5c0-4.3-2.2-6.5-6.5-6.5zm-6.3 72.3c0 9.1-2.1 16.1-6.2 21-4.1 4.8-9.6 7.3-16.4 7.3-6.9 0-12.5-2.5-16.5-7.3-4.1-4.9-6.1-11.9-6.1-21 0-9.2 2.1-16.3 6.1-21.1 4-4.8 9.6-7.2 16.5-7.2 6.8 0 12.3 2.4 16.4 7.2 4.1 4.8 6.2 11.9 6.2 21.1zm35.9-54.9c5.6 0 8.5-2.7 8.5-8 0-5.2-2.9-7.9-8.5-7.9s-8.5 2.6-8.5 7.9c0 5.3 2.9 8 8.5 8zm0 16.5c-4.3 0-6.5 2.3-6.5 6.9v62.7c0 4.7 2.2 7.1 6.5 7.1 4.4 0 6.6-2.4 6.6-7.1v-62.7c0-4.6-2.2-6.9-6.6-6.9z"/><path class="st1" d="M1116.9 1495.4c5-2 9-5 11.9-8.9 3.1-4.2 4.7-9.4 4.7-15.4 0-9-3.1-16-9.3-21-6.1-5-14.9-7.5-26.1-7.5h-36.3c-4.8 0-7.3 2.4-7.3 7.3v94.3c0 4.8 2.4 7.3 7.3 7.3h38.2c11.4 0 20.3-2.6 26.6-7.7 6.3-5.2 9.5-12.7 9.5-22.4 0-6.8-1.8-12.5-5.4-16.9-3.4-4.4-8-7.4-13.8-9.1zm6 25.6c0 13.1-7.9 19.4-24.2 19.4h-31.2v-38.8h31.2c16.3 0 24.2 6.4 24.2 19.4zm-55.4-30.2v-37.5h28.8c16.2 0 24 6.2 24 18.8 0 12.6-7.9 18.7-24 18.7h-28.8zm139.9-15.8c-4.4 0-6.6 2.2-6.6 6.6v37.1c0 6.9-2 12.5-5.9 16.7-3.9 4.1-9 6.3-15.2 6.3-5.7 0-9.9-1.6-12.5-4.6-2.6-3.1-4-8-4-14.5v-40.9c0-4.4-2.2-6.6-6.6-6.6-4.3 0-6.5 2.2-6.5 6.6v41.1c0 19.9 9.1 29.9 27.2 29.9 5.3 0 10.2-1.2 14.5-3.6 3.9-2.2 7-5.3 9.4-9.3v5.8c0 4.5 2.2 6.8 6.5 6.8 4.2 0 6.3-2.3 6.3-6.8v-63.9c-.1-4.5-2.3-6.7-6.6-6.7zm83.4-33.6c-4.4 0-6.6 2.2-6.6 6.6v39.9c-2.2-3.9-5.3-7.1-9.4-9.4-4.5-2.6-9.7-3.9-15.6-3.9-6.7 0-12.6 1.6-17.6 4.7s-8.9 7.7-11.6 13.5-4.1 12.8-4.1 20.8c0 7.9 1.4 14.8 4.1 20.6 2.7 5.8 6.6 10.4 11.6 13.6s10.9 4.8 17.6 4.8c5.9 0 11.1-1.3 15.6-4 4.1-2.4 7.3-5.6 9.5-9.7v6.5c0 4.5 2.2 6.8 6.5 6.8s6.5-2.3 6.5-6.8v-97.5c0-4.3-2.2-6.5-6.5-6.5zm-6.3 72.3c0 9.1-2.1 16.1-6.2 21-4.1 4.8-9.6 7.3-16.4 7.3-6.9 0-12.5-2.5-16.5-7.3-4.1-4.9-6.1-11.9-6.1-21 0-9.2 2.1-16.3 6.1-21.1 4-4.8 9.6-7.2 16.5-7.2 6.8 0 12.3 2.4 16.4 7.2 4.1 4.8 6.2 11.9 6.2 21.1zm89.7-72.3c-4.4 0-6.6 2.2-6.6 6.6v39.9c-2.2-3.9-5.3-7.1-9.4-9.4-4.5-2.6-9.7-3.9-15.6-3.9-6.7 0-12.6 1.6-17.6 4.7s-8.9 7.7-11.6 13.5-4.1 12.8-4.1 20.8c0 7.9 1.4 14.8 4.1 20.6 2.7 5.8 6.6 10.4 11.6 13.6s10.9 4.8 17.6 4.8c5.9 0 11.1-1.3 15.6-4 4.1-2.4 7.3-5.6 9.5-9.7v6.5c0 4.5 2.2 6.8 6.5 6.8s6.5-2.3 6.5-6.8v-97.5c0-4.3-2.2-6.5-6.5-6.5zm-6.3 72.3c0 9.1-2.1 16.1-6.2 21-4.1 4.8-9.6 7.3-16.4 7.3-6.9 0-12.5-2.5-16.5-7.3-4.1-4.9-6.1-11.9-6.1-21 0-9.2 2.1-16.3 6.1-21.1 4.1-4.8 9.6-7.2 16.5-7.2 6.8 0 12.3 2.4 16.4 7.2 4.1 4.8 6.2 11.9 6.2 21.1zm92.8-35.9c-.9-1.9-2.6-2.8-5.1-2.8-1.8 0-3.2.4-4.2 1.1-1 .8-1.9 2.1-2.7 4l-23 55.8-22.8-55.8c-1.4-3.4-3.6-5.1-6.6-5.1-2.9 0-4.9.9-5.9 2.8-1 1.8-1 4 .1 6.4l28.1 65.5-9.3 21c-1 2.3-1 4.5-.1 6.3.9 1.9 2.6 2.9 5.1 2.9 1.8 0 3.2-.4 4.3-1.1 1-.7 2-2.1 2.8-4l39.2-90.8c.9-2.3.9-4.4.1-6.2zm25-1c-2.5 0-4.7-.4-6.8-1.3-2.1-.9-3.9-2.1-5.5-3.7s-2.8-3.4-3.7-5.5c-.9-2.1-1.3-4.4-1.3-6.8s.4-4.7 1.3-6.8c.9-2.1 2.1-3.9 3.7-5.5s3.4-2.8 5.5-3.7c2.1-.9 4.4-1.3 6.8-1.3s4.7.4 6.8 1.3c2.1.9 3.9 2.1 5.5 3.7s2.8 3.4 3.7 5.5c.9 2.1 1.3 4.4 1.3 6.8s-.4 4.7-1.3 6.8c-.9 2.1-2.1 3.9-3.7 5.5s-3.4 2.8-5.5 3.7c-2 .9-4.3 1.3-6.8 1.3zm0-2.5c2.8 0 5.3-.7 7.5-2s3.9-3.1 5.2-5.3c1.3-2.2 1.9-4.7 1.9-7.5s-.6-5.3-1.9-7.5-3-4-5.2-5.3-4.7-1.9-7.5-1.9-5.3.6-7.5 1.9-4 3.1-5.2 5.3c-1.3 2.2-1.9 4.7-1.9 7.5s.6 5.3 1.9 7.5 3 4 5.2 5.3c2.2 1.4 4.7 2 7.5 2z"/><path class="st1" d="M1479.3 1465.3c-.4 0-.7-.1-.9-.3-.2-.2-.3-.5-.3-.9v-8.1h-2.8c-.7 0-1-.3-1-1s.3-1 1-1h8.2c.7 0 1 .3 1 1s-.3 1-1 1h-2.8v8.1c0 .4-.1.7-.3.9s-.7.3-1.1.3zm7.3 0c-.4 0-.6-.1-.8-.3-.2-.2-.3-.5-.3-.9v-9.3c0-.4.1-.7.3-.9.2-.2.5-.3.9-.3.3 0 .6.1.8.2.2.1.4.3.5.6l3.4 6.3 3.4-6.3c.2-.3.3-.5.5-.6s.4-.2.7-.2c.4 0 .6.1.8.3.2.2.3.5.3.9v9.3c0 .8-.4 1.2-1.1 1.2-.8 0-1.1-.4-1.1-1.2v-5.9l-2.6 4.7c-.1.2-.3.4-.4.5s-.3.2-.6.2-.4-.1-.6-.2-.3-.3-.4-.5l-2.6-4.7v5.9c.1.9-.3 1.2-1.1 1.2z"/><path class="st2" d="M518.2 1661.9c-1.6 0-2.5-.9-2.5-2.6v-17.8l-14-19.2c-.6-.8-.7-1.5-.3-2.3.3-.8 1-1.2 2-1.2s1.9.5 2.7 1.6l12.2 16.8 12.1-16.8c.8-1.1 1.7-1.6 2.7-1.6s1.6.4 1.9 1.1c.3.7.2 1.6-.4 2.4l-14 19.3v17.7c.1 1.8-.8 2.6-2.4 2.6zm29.8.2c-2.8 0-5.3-.6-7.4-1.9-2.1-1.2-3.7-3-4.8-5.3s-1.7-4.9-1.7-8 .6-5.8 1.7-8c1.1-2.3 2.8-4 4.8-5.3 2.1-1.2 4.5-1.9 7.4-1.9 2.8 0 5.3.6 7.4 1.9 2.1 1.2 3.7 3 4.9 5.3 1.1 2.3 1.7 4.9 1.7 8s-.6 5.8-1.7 8c-1.1 2.3-2.8 4-4.9 5.3-2.1 1.2-4.5 1.9-7.4 1.9zm0-3.9c2.7 0 4.9-1 6.5-2.9s2.5-4.7 2.5-8.3c0-3.6-.8-6.4-2.5-8.3-1.6-1.9-3.8-2.9-6.5-2.9-2.8 0-5 1-6.6 2.9s-2.4 4.7-2.4 8.3c0 3.6.8 6.4 2.4 8.3 1.7 1.9 3.9 2.9 6.6 2.9zm31.6 3.9c-7 0-10.5-3.9-10.5-11.6v-16.1c0-1.6.8-2.5 2.4-2.5 1.6 0 2.5.8 2.5 2.5v16c0 2.6.5 4.5 1.6 5.8 1.1 1.2 2.7 1.9 5 1.9 2.5 0 4.5-.8 6.1-2.5s2.3-3.9 2.3-6.6v-14.5c0-1.6.8-2.5 2.5-2.5 1.6 0 2.4.8 2.4 2.5v25c0 1.7-.8 2.5-2.3 2.5-1.6 0-2.4-.8-2.4-2.5v-2.8c-.9 1.8-2.2 3.1-3.9 4.1-1.7.8-3.6 1.3-5.7 1.3zm25.9-.2c-1.6 0-2.5-.8-2.5-2.5v-25c0-1.6.8-2.5 2.3-2.5 1.6 0 2.4.8 2.4 2.5v3.2c.8-1.8 2-3.3 3.7-4.2 1.7-1 3.7-1.5 6-1.6 1.3-.1 2 .5 2 1.9.1 1.4-.6 2.2-2.2 2.3l-1 .1c-2.8.2-4.9 1.1-6.3 2.6-1.4 1.5-2.2 3.6-2.2 6.2v14.5c.2 1.7-.6 2.5-2.2 2.5zm46.2.2c-3.4 0-6-.9-7.7-2.7-1.7-1.8-2.6-4.5-2.6-7.9v-15.3h-4c-1.4 0-2.1-.6-2.1-1.9 0-1.2.7-1.9 2.1-1.9h4v-6.9c0-1.6.8-2.5 2.5-2.5 1.6 0 2.4.8 2.4 2.5v6.9h7.6c1.4 0 2.1.6 2.1 1.9s-.7 1.9-2.1 1.9h-7.6v14.8c0 2.3.5 4 1.4 5.2 1 1.2 2.5 1.8 4.7 1.8.8 0 1.4-.1 1.9-.2.5-.2 1-.2 1.4-.2s.7.1.9.4.4.8.4 1.4c0 .5-.1.9-.3 1.3s-.5.7-.9.8c-.5.2-1.1.3-1.9.5-.9 0-1.6.1-2.2.1zm11.8-.2c-1.6 0-2.5-.8-2.5-2.5v-25c0-1.6.8-2.5 2.3-2.5 1.6 0 2.4.8 2.4 2.5v3.2c.8-1.8 2-3.3 3.7-4.2 1.7-1 3.7-1.5 6-1.6 1.3-.1 2 .5 2 1.9.1 1.4-.6 2.2-2.2 2.3l-1 .1c-2.8.2-4.9 1.1-6.3 2.6-1.4 1.5-2.2 3.6-2.2 6.2v14.5c.2 1.7-.6 2.5-2.2 2.5zm29.3.2c-7 0-10.5-3.9-10.5-11.6v-16.1c0-1.6.8-2.5 2.4-2.5 1.6 0 2.5.8 2.5 2.5v16c0 2.6.5 4.5 1.6 5.8 1.1 1.2 2.7 1.9 5 1.9 2.5 0 4.5-.8 6.1-2.5s2.3-3.9 2.3-6.6v-14.5c0-1.6.8-2.5 2.5-2.5 1.6 0 2.4.8 2.4 2.5v25c0 1.7-.8 2.5-2.3 2.5-1.6 0-2.4-.8-2.4-2.5v-2.8c-.9 1.8-2.2 3.1-3.9 4.1-1.7.8-3.6 1.3-5.7 1.3zm33.2 0c-1.8 0-3.6-.2-5.4-.7-1.8-.5-3.5-1.2-5.1-2.3-.7-.4-1.1-1-1.1-1.7s.3-1.3.8-1.7c.5-.4 1.2-.4 2 0 1.6 1 3.1 1.6 4.5 2 1.5.4 2.9.6 4.4.6 2.3 0 4-.4 5.2-1.3 1.2-.8 1.7-2 1.7-3.4 0-1.1-.4-2-1.1-2.7-.8-.7-2-1.2-3.6-1.5l-5.5-1.2c-5-1.1-7.4-3.6-7.4-7.7 0-2.6 1.1-4.8 3.2-6.4 2.1-1.6 4.9-2.4 8.3-2.4 1.7 0 3.4.2 5 .7s3 1.2 4.3 2.2c.7.5 1 1.1.9 1.7-.1.7-.4 1.2-.9 1.6s-1.2.3-2-.2c-1.2-.8-2.4-1.4-3.7-1.8-1.2-.4-2.5-.6-3.7-.6-2.2 0-3.9.4-5.1 1.3-1.2.9-1.7 2-1.7 3.5 0 2.2 1.5 3.7 4.4 4.3l5.5 1.1c2.6.6 4.5 1.5 5.8 2.7s2 2.9 2 5c0 2.7-1.1 4.8-3.2 6.3-2.1 1.8-4.9 2.6-8.5 2.6zm30.5 0c-3.4 0-6-.9-7.7-2.7-1.7-1.8-2.6-4.5-2.6-7.9v-15.3h-4c-1.4 0-2.1-.6-2.1-1.9 0-1.2.7-1.9 2.1-1.9h4v-6.9c0-1.6.8-2.5 2.5-2.5 1.6 0 2.4.8 2.4 2.5v6.9h7.6c1.4 0 2.1.6 2.1 1.9s-.7 1.9-2.1 1.9H751v14.8c0 2.3.5 4 1.4 5.2 1 1.2 2.5 1.8 4.7 1.8.8 0 1.4-.1 1.9-.2.5-.2 1-.2 1.4-.2s.7.1.9.4.4.8.4 1.4c0 .5-.1.9-.3 1.3s-.5.7-.9.8c-.5.2-1.1.3-1.9.5-.8 0-1.5.1-2.1.1zm22.1 0c-4.6 0-8.2-1.4-10.9-4.1s-4-6.4-4-11c0-3 .6-5.7 1.8-8s2.9-4.1 5-5.3 4.5-1.9 7.3-1.9c4 0 7.1 1.3 9.3 3.8s3.4 6 3.4 10.5c0 1.2-.7 1.9-2.1 1.9h-19.9c.2 3.3 1.1 5.9 2.9 7.6 1.8 1.7 4.2 2.6 7.3 2.6 1.3 0 2.7-.2 4-.5 1.4-.3 2.7-1 4-1.8.9-.6 1.7-.7 2.3-.4.6.4.9.9 1 1.7 0 .7-.4 1.4-1.2 2-1.3 1-2.9 1.7-4.7 2.2-2 .4-3.7.7-5.5.7zm-.7-26.7c-2.8 0-4.9.9-6.5 2.6s-2.5 4-2.8 6.8h17.7c-.1-3-.9-5.3-2.3-6.9-1.5-1.7-3.5-2.5-6.1-2.5zm30.6 26.7c-2.6 0-4.9-.6-6.8-1.9-1.9-1.2-3.4-3-4.5-5.3s-1.6-4.9-1.6-8 .5-5.8 1.6-8.1 2.6-4 4.5-5.2 4.2-1.8 6.8-1.8c2.3 0 4.3.5 6 1.5s3 2.4 3.9 4.1v-16.2c0-1.6.8-2.5 2.5-2.5 1.6 0 2.4.8 2.4 2.5v38.2c0 1.7-.8 2.5-2.4 2.5-1.6 0-2.4-.8-2.4-2.5v-3.1c-.9 1.8-2.2 3.2-3.9 4.2-1.8 1.1-3.8 1.6-6.1 1.6zm1.1-3.9c2.7 0 4.9-1 6.5-2.9s2.5-4.7 2.5-8.3c0-3.6-.8-6.4-2.5-8.3-1.6-1.9-3.8-2.9-6.5-2.9-2.8 0-5 1-6.6 2.9s-2.4 4.7-2.4 8.3c0 3.6.8 6.4 2.4 8.3 1.6 1.9 3.8 2.9 6.6 2.9zm53.1 3.9c-2.3 0-4.3-.5-6.1-1.5s-3.1-2.4-3.9-4.2v3.1c0 1.7-.8 2.5-2.4 2.5-1.6 0-2.4-.8-2.4-2.5v-38.2c0-1.6.8-2.5 2.4-2.5 1.6 0 2.5.8 2.5 2.5v16.2c.8-1.7 2.1-3.1 3.9-4.1 1.8-1 3.8-1.5 6-1.5 2.6 0 4.9.6 6.8 1.8 1.9 1.2 3.4 3 4.5 5.2 1.1 2.3 1.6 5 1.6 8.1s-.5 5.8-1.6 8c-1.1 2.3-2.6 4-4.5 5.3-1.9 1.1-4.2 1.8-6.8 1.8zm-1-3.9c2.7 0 4.9-1 6.5-2.9s2.5-4.7 2.5-8.3c0-3.6-.8-6.4-2.5-8.3-1.6-1.9-3.8-2.9-6.5-2.9s-4.9 1-6.5 2.9-2.5 4.7-2.5 8.3c0 3.6.8 6.4 2.5 8.3 1.6 1.9 3.8 2.9 6.5 2.9zm31.6 3.9c-7 0-10.5-3.9-10.5-11.6v-16.1c0-1.6.8-2.5 2.4-2.5 1.6 0 2.5.8 2.5 2.5v16c0 2.6.5 4.5 1.6 5.8 1.1 1.2 2.7 1.9 5 1.9 2.5 0 4.5-.8 6.1-2.5s2.3-3.9 2.3-6.6v-14.5c0-1.6.8-2.5 2.5-2.5 1.6 0 2.4.8 2.4 2.5v25c0 1.7-.8 2.5-2.3 2.5-1.6 0-2.4-.8-2.4-2.5v-2.8c-.9 1.8-2.2 3.1-3.9 4.1-1.8.8-3.6 1.3-5.7 1.3zm34.4 0c-2.6 0-4.9-.6-6.8-1.9-1.9-1.2-3.4-3-4.5-5.3s-1.6-4.9-1.6-8 .5-5.8 1.6-8.1 2.6-4 4.5-5.2 4.2-1.8 6.8-1.8c2.3 0 4.3.5 6 1.5s3 2.4 3.9 4.1v-16.2c0-1.6.8-2.5 2.5-2.5 1.6 0 2.4.8 2.4 2.5v38.2c0 1.7-.8 2.5-2.4 2.5-1.6 0-2.4-.8-2.4-2.5v-3.1c-.9 1.8-2.2 3.2-3.9 4.2-1.8 1.1-3.8 1.6-6.1 1.6zm1.1-3.9c2.7 0 4.9-1 6.5-2.9s2.5-4.7 2.5-8.3c0-3.6-.8-6.4-2.5-8.3-1.6-1.9-3.8-2.9-6.5-2.9-2.8 0-5 1-6.6 2.9s-2.4 4.7-2.4 8.3c0 3.6.8 6.4 2.4 8.3 1.6 1.9 3.8 2.9 6.6 2.9zm34 3.9c-2.6 0-4.9-.6-6.8-1.9-1.9-1.2-3.4-3-4.5-5.3s-1.6-4.9-1.6-8 .5-5.8 1.6-8.1 2.6-4 4.5-5.2 4.2-1.8 6.8-1.8c2.3 0 4.3.5 6 1.5s3 2.4 3.9 4.1v-16.2c0-1.6.8-2.5 2.5-2.5 1.6 0 2.4.8 2.4 2.5v38.2c0 1.7-.8 2.5-2.4 2.5-1.6 0-2.4-.8-2.4-2.5v-3.1c-.9 1.8-2.2 3.2-3.9 4.2-1.9 1.1-3.9 1.6-6.1 1.6zm1-3.9c2.7 0 4.9-1 6.5-2.9s2.5-4.7 2.5-8.3c0-3.6-.8-6.4-2.5-8.3-1.6-1.9-3.8-2.9-6.5-2.9-2.8 0-5 1-6.6 2.9s-2.4 4.7-2.4 8.3c0 3.6.8 6.4 2.4 8.3 1.6 1.9 3.8 2.9 6.6 2.9zm29.3 14.6c-.9 0-1.5-.4-1.9-1.1-.3-.7-.3-1.5.1-2.4l3.7-8.3-11-25.7c-.4-.9-.4-1.7 0-2.4s1.1-1 2.2-1 1.9.6 2.5 1.9l9.1 22.2 9.1-22.2c.3-.7.7-1.2 1-1.5.4-.3.9-.4 1.6-.4.9 0 1.5.3 1.9 1 .3.7.3 1.5-.1 2.3l-15.4 35.5c-.3.7-.7 1.2-1.1 1.5-.5.4-1 .6-1.7.6zm43.9-10.9c-1.6 0-2.4-.8-2.4-2.5v-23.3h-3.8c-1.4 0-2.1-.6-2.1-1.9 0-1.2.7-1.9 2.1-1.9h3.8v-1c0-7.5 3.7-11.5 11-12.2l1.7-.2c.7 0 1.2.1 1.6.5.3.4.5.8.5 1.3s-.1 1-.4 1.4-.7.6-1.2.7l-1.4.1c-2.4.2-4.2.9-5.3 2.2-1.1 1.3-1.7 3.2-1.7 5.6v1.6h6.5c1.4 0 2.1.6 2.1 1.9s-.7 1.9-2.1 1.9h-6.5v23.3c0 1.7-.8 2.5-2.4 2.5zm27.3.2c-2.8 0-5.3-.6-7.4-1.9-2.1-1.2-3.7-3-4.8-5.3-1.1-2.3-1.7-4.9-1.7-8s.6-5.8 1.7-8c1.1-2.3 2.8-4 4.8-5.3 2.1-1.2 4.5-1.9 7.4-1.9 2.8 0 5.3.6 7.4 1.9 2.1 1.2 3.7 3 4.9 5.3 1.1 2.3 1.7 4.9 1.7 8s-.6 5.8-1.7 8c-1.1 2.3-2.8 4-4.9 5.3-2.2 1.2-4.6 1.9-7.4 1.9zm0-3.9c2.7 0 4.9-1 6.5-2.9s2.5-4.7 2.5-8.3c0-3.6-.8-6.4-2.5-8.3-1.6-1.9-3.8-2.9-6.5-2.9-2.8 0-5 1-6.6 2.9s-2.4 4.7-2.4 8.3c0 3.6.8 6.4 2.4 8.3s3.8 2.9 6.6 2.9zm23.7 3.7c-1.6 0-2.5-.8-2.5-2.5v-25c0-1.6.8-2.5 2.3-2.5 1.6 0 2.4.8 2.4 2.5v3.2c.8-1.8 2-3.3 3.7-4.2 1.7-1 3.7-1.5 6-1.6 1.3-.1 2 .5 2 1.9.1 1.4-.6 2.2-2.2 2.3l-1 .1c-2.8.2-4.9 1.1-6.3 2.6s-2.2 3.6-2.2 6.2v14.5c.3 1.7-.5 2.5-2.2 2.5zm49.3.2c-2.3 0-4.3-.5-6.1-1.5-1.8-1-3.1-2.4-3.9-4.2v3.1c0 1.7-.8 2.5-2.4 2.5s-2.4-.8-2.4-2.5v-38.2c0-1.6.8-2.5 2.4-2.5s2.5.8 2.5 2.5v16.2c.8-1.7 2.1-3.1 3.9-4.1s3.8-1.5 6-1.5c2.6 0 4.9.6 6.8 1.8 1.9 1.2 3.4 3 4.5 5.2 1.1 2.3 1.6 5 1.6 8.1s-.5 5.8-1.6 8c-1.1 2.3-2.6 4-4.5 5.3-1.9 1.1-4.2 1.8-6.8 1.8zm-1-3.9c2.7 0 4.9-1 6.5-2.9s2.5-4.7 2.5-8.3c0-3.6-.8-6.4-2.5-8.3-1.6-1.9-3.8-2.9-6.5-2.9s-4.9 1-6.5 2.9-2.5 4.7-2.5 8.3c0 3.6.8 6.4 2.5 8.3 1.6 1.9 3.8 2.9 6.5 2.9zm34.4 3.9c-4.6 0-8.2-1.4-10.9-4.1-2.7-2.7-4-6.4-4-11 0-3 .6-5.7 1.8-8 1.2-2.3 2.9-4.1 5-5.3 2.1-1.3 4.5-1.9 7.3-1.9 4 0 7.1 1.3 9.3 3.8 2.2 2.5 3.4 6 3.4 10.5 0 1.2-.7 1.9-2.1 1.9h-19.9c.2 3.3 1.1 5.9 2.9 7.6s4.2 2.6 7.3 2.6c1.3 0 2.7-.2 4-.5 1.4-.3 2.7-1 4-1.8.9-.6 1.7-.7 2.3-.4.6.4.9.9 1 1.7 0 .7-.4 1.4-1.2 2-1.3 1-2.9 1.7-4.7 2.2-2 .4-3.8.7-5.5.7zm-.8-26.7c-2.8 0-4.9.9-6.5 2.6s-2.5 4-2.8 6.8h17.7c-.1-3-.9-5.3-2.3-6.9-1.5-1.7-3.5-2.5-6.1-2.5zm31.3 26.7c-3.4 0-6-.9-7.7-2.7-1.7-1.8-2.6-4.5-2.6-7.9v-15.3h-4c-1.4 0-2.1-.6-2.1-1.9 0-1.2.7-1.9 2.1-1.9h4v-6.9c0-1.6.8-2.5 2.5-2.5 1.6 0 2.4.8 2.4 2.5v6.9h7.6c1.4 0 2.1.6 2.1 1.9s-.7 1.9-2.1 1.9h-7.6v14.8c0 2.3.5 4 1.4 5.2 1 1.2 2.5 1.8 4.7 1.8.8 0 1.4-.1 1.9-.2.5-.2 1-.2 1.4-.2s.7.1.9.4c.2.3.4.8.4 1.4 0 .5-.1.9-.3 1.3-.2.4-.5.7-.9.8-.5.2-1.1.3-1.9.5-.8 0-1.6.1-2.2.1z"/><path class="st2" d="M1221.4 1662.1c-3.4 0-6-.9-7.7-2.7-1.7-1.8-2.6-4.5-2.6-7.9v-15.3h-4c-1.4 0-2.1-.6-2.1-1.9 0-1.2.7-1.9 2.1-1.9h4v-6.9c0-1.6.8-2.5 2.5-2.5 1.6 0 2.4.8 2.4 2.5v6.9h7.6c1.4 0 2.1.6 2.1 1.9s-.7 1.9-2.1 1.9h-7.6v14.8c0 2.3.5 4 1.4 5.2 1 1.2 2.5 1.8 4.7 1.8.8 0 1.4-.1 1.9-.2.5-.2 1-.2 1.4-.2s.7.1.9.4c.2.3.4.8.4 1.4 0 .5-.1.9-.3 1.3-.2.4-.5.7-.9.8-.5.2-1.1.3-1.9.5-.8 0-1.5.1-2.2.1zm22.2 0c-4.6 0-8.2-1.4-10.9-4.1-2.7-2.7-4-6.4-4-11 0-3 .6-5.7 1.8-8 1.2-2.3 2.9-4.1 5-5.3 2.1-1.3 4.5-1.9 7.3-1.9 4 0 7.1 1.3 9.3 3.8 2.2 2.5 3.4 6 3.4 10.5 0 1.2-.7 1.9-2.1 1.9h-19.9c.2 3.3 1.1 5.9 2.9 7.6s4.2 2.6 7.3 2.6c1.3 0 2.7-.2 4-.5 1.4-.3 2.7-1 4-1.8.9-.6 1.7-.7 2.3-.4.6.4.9.9 1 1.7 0 .7-.4 1.4-1.2 2-1.3 1-2.9 1.7-4.7 2.2-2 .4-3.8.7-5.5.7zm-.8-26.7c-2.8 0-4.9.9-6.5 2.6s-2.5 4-2.8 6.8h17.7c-.1-3-.9-5.3-2.3-6.9-1.5-1.7-3.5-2.5-6.1-2.5zm22.1 26.5c-1.6 0-2.5-.8-2.5-2.5v-25c0-1.6.8-2.5 2.3-2.5 1.6 0 2.4.8 2.4 2.5v3.2c.8-1.8 2-3.3 3.7-4.2 1.7-1 3.7-1.5 6-1.6 1.3-.1 2 .5 2 1.9.1 1.4-.6 2.2-2.2 2.3l-1 .1c-2.8.2-4.9 1.1-6.3 2.6s-2.2 3.6-2.2 6.2v14.5c.2 1.7-.6 2.5-2.2 2.5zm36.9 0c-1.6 0-2.4-.8-2.4-2.5v-38.2c0-1.6.8-2.5 2.4-2.5s2.5.8 2.5 2.5v15.9c1-1.8 2.3-3.1 4.1-4 1.7-.9 3.7-1.4 5.9-1.4 6.9 0 10.4 3.8 10.4 11.5v16.1c0 1.7-.8 2.5-2.4 2.5s-2.5-.8-2.5-2.5v-15.8c0-2.7-.5-4.7-1.6-6s-2.8-1.9-5.1-1.9c-2.7 0-4.8.8-6.4 2.5s-2.4 3.9-2.4 6.6v14.5c0 1.9-.9 2.7-2.5 2.7zm44.8.2c-4.6 0-8.2-1.4-10.9-4.1-2.7-2.7-4-6.4-4-11 0-3 .6-5.7 1.8-8 1.2-2.3 2.9-4.1 5-5.3 2.1-1.3 4.5-1.9 7.3-1.9 4 0 7.1 1.3 9.3 3.8 2.2 2.5 3.4 6 3.4 10.5 0 1.2-.7 1.9-2.1 1.9h-19.9c.2 3.3 1.1 5.9 2.9 7.6s4.2 2.6 7.3 2.6c1.3 0 2.7-.2 4-.5 1.4-.3 2.7-1 4-1.8.9-.6 1.7-.7 2.3-.4.6.4.9.9 1 1.7 0 .7-.4 1.4-1.2 2-1.3 1-2.9 1.7-4.7 2.2-2 .4-3.7.7-5.5.7zm-.7-26.7c-2.8 0-4.9.9-6.5 2.6s-2.5 4-2.8 6.8h17.7c-.1-3-.9-5.3-2.3-6.9-1.5-1.7-3.5-2.5-6.1-2.5zm28.7 26.7c-2 0-3.8-.4-5.4-1.2-1.6-.8-2.8-1.9-3.8-3.2-.9-1.4-1.4-2.9-1.4-4.6 0-2.1.5-3.8 1.7-5 1.1-1.2 2.9-2.1 5.5-2.7 2.5-.5 6-.8 10.4-.8h1.9v-1.9c0-2.5-.5-4.3-1.5-5.4s-2.7-1.7-4.9-1.7c-1.4 0-2.8.2-4.2.5-1.4.4-2.9.9-4.4 1.7-.7.4-1.3.4-1.7.2-.5-.2-.8-.6-1-1.1s-.2-1 0-1.6c.2-.5.6-1 1.2-1.2 1.7-.9 3.5-1.5 5.2-1.9s3.4-.6 5-.6c3.8 0 6.6.9 8.4 2.8 1.8 1.8 2.7 4.7 2.7 8.6v16.3c0 1.7-.7 2.5-2.2 2.5-1.6 0-2.3-.8-2.3-2.5v-2.9c-.8 1.7-1.9 3.1-3.5 4.1-1.7 1.1-3.5 1.6-5.7 1.6zm.8-3.7c2.4 0 4.4-.8 5.9-2.5s2.3-3.8 2.3-6.3v-1.8h-1.9c-3.2 0-5.8.2-7.7.5-1.9.3-3.2.8-3.9 1.6-.7.7-1.1 1.8-1.1 3 0 1.6.6 3 1.7 4 1.2 1 2.7 1.5 4.7 1.5zm30.8 3.7c-2.9 0-5.1-.9-6.6-2.6s-2.3-4.3-2.3-7.6v-30.6c0-1.6.8-2.5 2.4-2.5s2.5.8 2.5 2.5v30.3c0 4.3 1.7 6.4 5.1 6.4.4 0 .7 0 1-.1.3 0 .6-.1.8-.1.4 0 .8.1.9.3.2.2.3.7.3 1.4 0 1.4-.7 2.1-2 2.3-.3.1-.7.1-1 .2-.5.1-.8.1-1.1.1zm20 0c-3.4 0-6-.9-7.7-2.7-1.7-1.8-2.6-4.5-2.6-7.9v-15.3h-4c-1.4 0-2.1-.6-2.1-1.9 0-1.2.7-1.9 2.1-1.9h4v-6.9c0-1.6.8-2.5 2.5-2.5 1.6 0 2.4.8 2.4 2.5v6.9h7.6c1.4 0 2.1.6 2.1 1.9s-.7 1.9-2.1 1.9h-7.6v14.8c0 2.3.5 4 1.4 5.2 1 1.2 2.5 1.8 4.7 1.8.8 0 1.4-.1 1.9-.2.5-.2 1-.2 1.4-.2s.7.1.9.4c.2.3.4.8.4 1.4 0 .5-.1.9-.3 1.3-.2.4-.5.7-.9.8-.5.2-1.1.3-1.9.5-.8 0-1.5.1-2.2.1zm12.1-.2c-1.6 0-2.4-.8-2.4-2.5v-38.2c0-1.6.8-2.5 2.4-2.5s2.5.8 2.5 2.5v15.9c1-1.8 2.3-3.1 4.1-4 1.7-.9 3.7-1.4 5.9-1.4 6.9 0 10.4 3.8 10.4 11.5v16.1c0 1.7-.8 2.5-2.4 2.5s-2.5-.8-2.5-2.5v-15.8c0-2.7-.5-4.7-1.6-6s-2.8-1.9-5.1-1.9c-2.7 0-4.8.8-6.4 2.5s-2.4 3.9-2.4 6.6v14.5c-.1 1.9-.9 2.7-2.5 2.7z"/><path id="Path_50_00000093141775221447552450000001578785437386392205_" class="st0" d="M-279.1-1202.5c-3.1-.5-6.2-1.5-8.9-3.1-.3-.2-.6-.1-.8.1l-37.7 37.7c-4.8 5.3-12.9 5.7-18.2.9-5.2-4.7-5.7-12.6-1.2-17.9l.3-.3.1-.1c.3-.3.5-.6.8-.8l37.4-37.4c.2-.2.2-.5 0-.7l-6.4-6.4c-.2-.2-.5-.2-.7 0l-37.4 37.4-.1.1-.2.2c-5.1 5-13.2 4.9-18.2-.2-4.8-4.9-4.9-12.8-.2-17.8l.4-.4 37.3-37.3c.2-.2.2-.5 0-.7l-6.4-6.4c-.2-.2-.5-.2-.7 0l-37.7 37.7c-9 9-9 23.5 0 32.5 4.3 4.3 10.1 6.7 16.2 6.7.8 0 1.7 0 2.5-.1-.1.8-.1 1.7-.1 2.5 0 12.7 10.3 23 23 23 6.1 0 11.9-2.4 16.2-6.7l41.1-41.1c.3-.3.3-.7 0-.9-.1-.4-.2-.5-.4-.5z"/><path id="Path_50-2_00000069376957124026356520000017536041963574690188_" class="st0" d="M-383.1-1312.4c3.1.5 6.2 1.5 8.9 3.1.3.2.6.1.8-.1l37.7-37.7c4.8-5.3 12.9-5.7 18.2-.9 5.2 4.7 5.7 12.6 1.2 17.9l-.3.3-.1.1c-.3.3-.5.6-.8.8l-37.4 37.4c-.2.2-.2.5 0 .7l6.4 6.4c.2.2.5.2.7 0l37.4-37.4.1-.1.2-.2c5.1-5 13.2-4.9 18.2.2 4.8 4.9 4.9 12.8.2 17.8l-.4.4-37.3 37.3c-.2.2-.2.5 0 .7l6.4 6.4c.2.2.5.2.7 0l37.7-37.7c9-9 9-23.5 0-32.5-4.3-4.3-10.1-6.7-16.2-6.7-.8 0-1.7 0-2.5.1.1-.8.1-1.7.1-2.5 0-12.7-10.3-23-23-23-6.1 0-11.9 2.4-16.2 6.7l-41.1 41.1c-.3.3-.3.7 0 .9.2.4.3.4.4.5z"/><path id="Path_75_00000150071021768004996960000003275666392550235542_" class="st1" d="M-276.1-1309.5c-.5 3.1-1.5 6.2-3.1 8.9-.2.3-.1.6.1.8l37.7 37.7c5.3 4.8 5.7 12.9.9 18.2l-.1.1c-4.3 5.2-12 6-17.3 1.6-.3-.2-.6-.5-.9-.8l-.1-.1c-.3-.3-.6-.5-.8-.8l-37.4-37.4c-.2-.2-.5-.2-.7 0l-6.4 6.4c-.2.2-.2.5 0 .7l37.4 37.4.1.1.2.2c5 5.1 4.9 13.2-.2 18.2-4.9 4.8-12.8 4.9-17.8.2l-.4-.4-34.2-34.2-13.6-13.6-37.7-37.7c-9-9-23.5-9-32.5 0-4.3 4.3-6.7 10.1-6.7 16.2 0 .8 0 1.7.1 2.5-.8-.1-1.7-.1-2.5-.1-12.7 0-23 10.3-23 23 0 6.1 2.4 11.9 6.7 16.2l41.1 41.1c.3.3.7.3.9 0 .1-.1.2-.2.2-.4.5-3.1 1.5-6.2 3.1-8.9.2-.3.1-.6-.1-.8l-37.7-37.7c-5.3-4.8-5.7-12.9-.9-18.2 4.8-4.8 12.5-5.3 18-1.1l.2.2.1.1c.3.3.6.5.8.8l37.4 37.4c.2.2.5.2.7 0l6.4-6.4c.2-.2.2-.5 0-.7l-37.4-37.4-.1-.1-.2-.2c-5-5.1-4.9-13.2.2-18.2 4.9-4.8 12.8-4.9 17.8-.2l.4.4 37.1 37.1 13.8 13.8 34.6 34.6c9 9 23.5 9 32.5 0 4.3-4.3 6.7-10.1 6.7-16.2 0-.8 0-1.7-.1-2.5.8.1 1.7.1 2.5.1 12.7 0 23-10.3 23-23 0-6.1-2.4-11.9-6.7-16.2l-41.1-41.1c-.3-.3-.7-.3-.9 0 0 .2-.1.3-.1.4z"/><path class="st0" d="M-104.3-1313c-1.8 0-3.2.4-4.2 1.1s-1.9 1.8-2.7 3.4l-39.2 74.2-39.4-74.2c-.8-1.6-1.8-2.7-2.8-3.4-1-.7-2.4-1.1-4.1-1.1-4.1 0-6.2 2.2-6.2 6.5v98c0 4.3 2.1 6.5 6.2 6.5 4 0 6-2.2 6-6.5v-77.8l34.4 63.7c.6 1.3 1.4 2.2 2.3 2.9.9.7 2.1 1 3.6 1s2.7-.3 3.5-.9 1.6-1.6 2.3-3l34-63.9v78c0 4.3 2.1 6.5 6.2 6.5s6.2-2.2 6.2-6.5v-98c-.1-4.3-2.1-6.5-6.1-6.5zm88.8 70.1c0-11.4-2.9-20.5-8.7-27s-13.9-9.9-24-9.9c-7.1 0-13.4 1.6-18.8 4.9-5.4 3.2-9.7 7.9-12.8 13.8-3.1 5.9-4.6 12.8-4.6 20.5 0 11.9 3.5 21.4 10.4 28.4 6.9 6.9 16.4 10.5 28.2 10.5 4.4 0 9-.7 13.7-2s8.8-3.3 12.1-5.7c2.2-1.5 3.4-3.3 3.3-5.3s-.9-3.5-2.6-4.5-3.8-.7-6.3.9c-3.2 2.2-6.6 3.8-10 4.6-3.4.9-6.9 1.3-10.2 1.3-7.8 0-14-2.2-18.5-6.6-4.3-4.3-6.8-10.6-7.2-18.8h50.4c3.7 0 5.6-1.7 5.6-5.1zm-55.9-3.7c.8-6.9 3.1-12.5 7.1-16.7 4-4.3 9.5-6.5 16.4-6.5 6.5 0 11.6 2.1 15.1 6.2 3.5 4 5.4 9.8 5.8 17h-44.4zM56-1313c-4.4 0-6.6 2.2-6.6 6.6v39.9c-2.2-3.9-5.3-7.1-9.4-9.4-4.5-2.6-9.7-3.9-15.6-3.9-6.7 0-12.6 1.6-17.6 4.7s-8.9 7.7-11.6 13.5-4.1 12.8-4.1 20.8c0 7.9 1.4 14.8 4.1 20.6 2.7 5.8 6.6 10.4 11.6 13.6s10.9 4.8 17.6 4.8c5.9 0 11.1-1.3 15.6-4 4.1-2.4 7.3-5.6 9.5-9.7v6.5c0 4.5 2.2 6.8 6.5 6.8s6.5-2.3 6.5-6.8v-97.5c0-4.3-2.2-6.5-6.5-6.5zm-6.3 72.3c0 9.1-2.1 16.1-6.2 21-4.1 4.8-9.6 7.3-16.4 7.3-6.9 0-12.5-2.5-16.5-7.3-4.1-4.9-6.1-11.9-6.1-21 0-9.2 2.1-16.3 6.1-21.1 4-4.8 9.6-7.2 16.5-7.2 6.8 0 12.3 2.4 16.4 7.2s6.2 11.9 6.2 21.1zm35.9-54.9c5.6 0 8.5-2.7 8.5-8 0-5.2-2.9-7.9-8.5-7.9s-8.5 2.6-8.5 7.9c0 5.3 2.9 8 8.5 8zm0 16.5c-4.3 0-6.5 2.3-6.5 6.9v62.7c0 4.7 2.2 7.1 6.5 7.1 4.4 0 6.6-2.4 6.6-7.1v-62.7c.1-4.6-2.2-6.9-6.6-6.9z"/><path class="st1" d="M180.7-1259c5-2 9-5 11.9-8.9 3.1-4.2 4.7-9.4 4.7-15.4 0-9-3.1-16-9.3-21-6.1-5-14.9-7.5-26.1-7.5h-36.3c-4.8 0-7.3 2.4-7.3 7.3v94.3c0 4.8 2.4 7.3 7.3 7.3h38.2c11.4 0 20.3-2.6 26.6-7.7 6.3-5.2 9.5-12.7 9.5-22.4 0-6.8-1.8-12.5-5.4-16.9-3.4-4.4-8-7.4-13.8-9.1zm6 25.6c0 13.1-7.9 19.4-24.2 19.4h-31.2v-38.8h31.2c16.3 0 24.2 6.4 24.2 19.4zm-55.4-30.2v-37.5h28.8c16.2 0 24 6.2 24 18.8 0 12.6-7.9 18.7-24 18.7h-28.8zm139.9-15.8c-4.4 0-6.6 2.2-6.6 6.6v37.1c0 6.9-2 12.5-5.9 16.7-3.9 4.1-9 6.3-15.2 6.3-5.7 0-9.9-1.6-12.5-4.6-2.6-3.1-4-8-4-14.5v-40.9c0-4.4-2.2-6.6-6.6-6.6-4.3 0-6.5 2.2-6.5 6.6v41.1c0 19.9 9.1 29.9 27.2 29.9 5.3 0 10.2-1.2 14.5-3.6 3.9-2.2 7-5.3 9.4-9.3v5.8c0 4.5 2.2 6.8 6.5 6.8 4.2 0 6.3-2.3 6.3-6.8v-63.9c-.1-4.5-2.3-6.7-6.6-6.7zm83.4-33.6c-4.4 0-6.6 2.2-6.6 6.6v39.9c-2.2-3.9-5.3-7.1-9.4-9.4-4.5-2.6-9.7-3.9-15.6-3.9-6.7 0-12.6 1.6-17.6 4.7s-8.9 7.7-11.6 13.5-4.1 12.8-4.1 20.8c0 7.9 1.4 14.8 4.1 20.6 2.7 5.8 6.6 10.4 11.6 13.6s10.9 4.8 17.6 4.8c5.9 0 11.1-1.3 15.6-4 4.1-2.4 7.3-5.6 9.5-9.7v6.5c0 4.5 2.2 6.8 6.5 6.8s6.5-2.3 6.5-6.8v-97.5c0-4.3-2.2-6.5-6.5-6.5zm-6.3 72.3c0 9.1-2.1 16.1-6.2 21-4.1 4.8-9.6 7.3-16.4 7.3-6.9 0-12.5-2.5-16.5-7.3-4.1-4.9-6.1-11.9-6.1-21 0-9.2 2.1-16.3 6.1-21.1 4-4.8 9.6-7.2 16.5-7.2 6.8 0 12.3 2.4 16.4 7.2 4.1 4.8 6.2 11.9 6.2 21.1zM438-1313c-4.4 0-6.6 2.2-6.6 6.6v39.9c-2.2-3.9-5.3-7.1-9.4-9.4-4.5-2.6-9.7-3.9-15.6-3.9-6.7 0-12.6 1.6-17.6 4.7s-8.9 7.7-11.6 13.5-4.1 12.8-4.1 20.8c0 7.9 1.4 14.8 4.1 20.6 2.7 5.8 6.6 10.4 11.6 13.6s10.9 4.8 17.6 4.8c5.9 0 11.1-1.3 15.6-4 4.1-2.4 7.3-5.6 9.5-9.7v6.5c0 4.5 2.2 6.8 6.5 6.8s6.5-2.3 6.5-6.8v-97.5c0-4.3-2.2-6.5-6.5-6.5zm-6.3 72.3c0 9.1-2.1 16.1-6.2 21-4.1 4.8-9.6 7.3-16.4 7.3-6.9 0-12.5-2.5-16.5-7.3-4.1-4.9-6.1-11.9-6.1-21 0-9.2 2.1-16.3 6.1-21.1 4.1-4.8 9.6-7.2 16.5-7.2 6.8 0 12.3 2.4 16.4 7.2s6.2 11.9 6.2 21.1zm92.8-35.9c-.9-1.9-2.6-2.8-5.1-2.8-1.8 0-3.2.4-4.2 1.1-1 .8-1.9 2.1-2.7 4l-23 55.8-22.8-55.8c-1.4-3.4-3.6-5.1-6.6-5.1-2.9 0-4.9.9-5.9 2.8-1 1.8-1 4 .1 6.4l28.1 65.5-9.3 21c-1 2.3-1 4.5-.1 6.3.9 1.9 2.6 2.9 5.1 2.9 1.8 0 3.2-.4 4.3-1.1 1-.7 2-2.1 2.8-4l39.2-90.8c.9-2.3 1-4.4.1-6.2zm25.1-1c-2.5 0-4.7-.4-6.8-1.3s-3.9-2.1-5.5-3.7-2.8-3.4-3.7-5.5-1.3-4.4-1.3-6.8.4-4.7 1.3-6.8c.9-2.1 2.1-3.9 3.7-5.5s3.4-2.8 5.5-3.7c2.1-.9 4.4-1.3 6.8-1.3 2.5 0 4.7.4 6.8 1.3s3.9 2.1 5.5 3.7 2.8 3.4 3.7 5.5 1.3 4.4 1.3 6.8-.4 4.7-1.3 6.8c-.9 2.1-2.1 3.9-3.7 5.5s-3.4 2.8-5.5 3.7c-2.1.9-4.4 1.3-6.8 1.3zm0-2.5c2.8 0 5.3-.7 7.5-2s3.9-3.1 5.2-5.3c1.3-2.2 1.9-4.7 1.9-7.5s-.6-5.3-1.9-7.5c-1.3-2.2-3-4-5.2-5.3s-4.7-1.9-7.5-1.9-5.3.6-7.5 1.9-4 3.1-5.2 5.3c-1.3 2.2-1.9 4.7-1.9 7.5s.6 5.3 1.9 7.5c1.3 2.2 3 4 5.2 5.3 2.1 1.4 4.7 2 7.5 2z"/><path class="st1" d="M543.1-1289.1c-.4 0-.7-.1-.9-.3-.2-.2-.3-.5-.3-.9v-8.1H539c-.7 0-1-.3-1-1s.3-1 1-1h8.2c.7 0 1 .3 1 1s-.3 1-1 1h-2.8v8.1c0 .4-.1.7-.3.9-.3.2-.6.3-1 .3zm7.4 0c-.4 0-.6-.1-.8-.3-.2-.2-.3-.5-.3-.9v-9.3c0-.4.1-.7.3-.9.2-.2.5-.3.9-.3.3 0 .6.1.8.2s.4.3.5.6l3.4 6.3 3.4-6.3c.2-.3.3-.5.5-.6s.4-.2.7-.2c.4 0 .6.1.8.3.2.2.3.5.3.9v9.3c0 .8-.4 1.2-1.1 1.2-.8 0-1.1-.4-1.1-1.2v-5.9l-2.6 4.7c-.1.2-.3.4-.4.5-.1.1-.3.2-.6.2-.2 0-.4-.1-.6-.2-.2-.1-.3-.3-.4-.5l-2.6-4.7v5.9c0 .8-.4 1.2-1.1 1.2z"/><path class="st2" d="M-418-1092.5c-1.6 0-2.5-.9-2.5-2.6v-17.8l-14-19.2c-.6-.8-.7-1.5-.3-2.3.3-.8 1-1.2 2-1.2s1.9.5 2.7 1.6l12.2 16.8 12.1-16.8c.8-1.1 1.7-1.6 2.7-1.6s1.6.4 1.9 1.1.2 1.6-.4 2.4l-14 19.3v17.7c.1 1.8-.7 2.6-2.4 2.6zm29.9.2c-2.8 0-5.3-.6-7.4-1.9-2.1-1.2-3.7-3-4.8-5.3-1.1-2.3-1.7-4.9-1.7-8s.6-5.8 1.7-8c1.1-2.3 2.8-4 4.8-5.3 2.1-1.2 4.5-1.9 7.4-1.9 2.8 0 5.3.6 7.4 1.9 2.1 1.2 3.7 3 4.9 5.3 1.1 2.3 1.7 4.9 1.7 8s-.6 5.8-1.7 8c-1.1 2.3-2.8 4-4.9 5.3-2.2 1.2-4.6 1.9-7.4 1.9zm0-3.9c2.7 0 4.9-1 6.5-2.9s2.5-4.7 2.5-8.3c0-3.6-.8-6.4-2.5-8.3-1.6-1.9-3.8-2.9-6.5-2.9-2.8 0-5 1-6.6 2.9s-2.4 4.7-2.4 8.3c0 3.6.8 6.4 2.4 8.3s3.8 2.9 6.6 2.9zm31.6 3.9c-7 0-10.5-3.9-10.5-11.6v-16.1c0-1.6.8-2.5 2.4-2.5s2.5.8 2.5 2.5v16c0 2.6.5 4.5 1.6 5.8 1.1 1.2 2.7 1.9 5 1.9 2.5 0 4.5-.8 6.1-2.5s2.3-3.9 2.3-6.6v-14.5c0-1.6.8-2.5 2.5-2.5 1.6 0 2.4.8 2.4 2.5v25c0 1.7-.8 2.5-2.3 2.5-1.6 0-2.4-.8-2.4-2.5v-2.8c-.9 1.8-2.2 3.1-3.9 4.1-1.8.8-3.7 1.3-5.7 1.3zm25.8-.2c-1.6 0-2.5-.8-2.5-2.5v-25c0-1.6.8-2.5 2.3-2.5 1.6 0 2.4.8 2.4 2.5v3.2c.8-1.8 2-3.3 3.7-4.2 1.7-1 3.7-1.5 6-1.6 1.3-.1 2 .5 2 1.9.1 1.4-.6 2.2-2.2 2.3l-1 .1c-2.8.2-4.9 1.1-6.3 2.6s-2.2 3.6-2.2 6.2v14.5c.2 1.7-.6 2.5-2.2 2.5zm46.2.2c-3.4 0-6-.9-7.7-2.7-1.7-1.8-2.6-4.5-2.6-7.9v-15.3h-4c-1.4 0-2.1-.6-2.1-1.9 0-1.2.7-1.9 2.1-1.9h4v-6.9c0-1.6.8-2.5 2.5-2.5 1.6 0 2.4.8 2.4 2.5v6.9h7.6c1.4 0 2.1.6 2.1 1.9s-.7 1.9-2.1 1.9h-7.6v14.8c0 2.3.5 4 1.4 5.2 1 1.2 2.5 1.8 4.7 1.8.8 0 1.4-.1 1.9-.2.5-.2 1-.2 1.4-.2s.7.1.9.4c.2.3.4.8.4 1.4 0 .5-.1.9-.3 1.3-.2.4-.5.7-.9.8-.5.2-1.1.3-1.9.5-.8 0-1.5.1-2.2.1zm11.8-.2c-1.6 0-2.5-.8-2.5-2.5v-25c0-1.6.8-2.5 2.3-2.5 1.6 0 2.4.8 2.4 2.5v3.2c.8-1.8 2-3.3 3.7-4.2 1.7-1 3.7-1.5 6-1.6 1.3-.1 2 .5 2 1.9.1 1.4-.6 2.2-2.2 2.3l-1 .1c-2.8.2-4.9 1.1-6.3 2.6s-2.2 3.6-2.2 6.2v14.5c.3 1.7-.6 2.5-2.2 2.5zm29.4.2c-7 0-10.5-3.9-10.5-11.6v-16.1c0-1.6.8-2.5 2.4-2.5 1.6 0 2.5.8 2.5 2.5v16c0 2.6.5 4.5 1.6 5.8 1.1 1.2 2.7 1.9 5 1.9 2.5 0 4.5-.8 6.1-2.5s2.3-3.9 2.3-6.6v-14.5c0-1.6.8-2.5 2.5-2.5 1.6 0 2.4.8 2.4 2.5v25c0 1.7-.8 2.5-2.3 2.5-1.6 0-2.4-.8-2.4-2.5v-2.8c-.9 1.8-2.2 3.1-3.9 4.1-1.8.8-3.7 1.3-5.7 1.3zm33.2 0c-1.8 0-3.6-.2-5.4-.7-1.8-.5-3.5-1.2-5.1-2.3-.7-.4-1.1-1-1.1-1.7s.3-1.3.8-1.7c.5-.4 1.2-.4 2 0 1.6 1 3.1 1.6 4.5 2 1.5.4 2.9.6 4.4.6 2.3 0 4-.4 5.2-1.3 1.2-.8 1.7-2 1.7-3.4 0-1.1-.4-2-1.1-2.7-.8-.7-2-1.2-3.6-1.5l-5.5-1.2c-5-1.1-7.4-3.6-7.4-7.7 0-2.6 1.1-4.8 3.2-6.4 2.1-1.6 4.9-2.4 8.3-2.4 1.7 0 3.4.2 5 .7s3 1.2 4.3 2.2c.7.5 1 1.1.9 1.7-.1.7-.4 1.2-.9 1.6s-1.2.3-2-.2c-1.2-.8-2.4-1.4-3.7-1.8-1.2-.4-2.5-.6-3.7-.6-2.2 0-3.9.4-5.1 1.3-1.2.9-1.7 2-1.7 3.5 0 2.2 1.5 3.7 4.4 4.3l5.5 1.1c2.6.6 4.5 1.5 5.8 2.7s2 2.9 2 5c0 2.7-1.1 4.8-3.2 6.3-2.2 1.8-5 2.6-8.5 2.6zm30.4 0c-3.4 0-6-.9-7.7-2.7-1.7-1.8-2.6-4.5-2.6-7.9v-15.3h-4c-1.4 0-2.1-.6-2.1-1.9 0-1.2.7-1.9 2.1-1.9h4v-6.9c0-1.6.8-2.5 2.5-2.5 1.6 0 2.4.8 2.4 2.5v6.9h7.6c1.4 0 2.1.6 2.1 1.9s-.7 1.9-2.1 1.9h-7.6v14.8c0 2.3.5 4 1.4 5.2 1 1.2 2.5 1.8 4.7 1.8.8 0 1.4-.1 1.9-.2.5-.2 1-.2 1.4-.2s.7.1.9.4.4.8.4 1.4c0 .5-.1.9-.3 1.3s-.5.7-.9.8c-.5.2-1.1.3-1.9.5-.8 0-1.6.1-2.2.1zm22.2 0c-4.6 0-8.2-1.4-10.9-4.1s-4-6.4-4-11c0-3 .6-5.7 1.8-8s2.9-4.1 5-5.3c2.1-1.3 4.5-1.9 7.3-1.9 4 0 7.1 1.3 9.3 3.8s3.4 6 3.4 10.5c0 1.2-.7 1.9-2.1 1.9h-19.9c.2 3.3 1.1 5.9 2.9 7.6 1.8 1.7 4.2 2.6 7.3 2.6 1.3 0 2.7-.2 4-.5 1.4-.3 2.7-1 4-1.8.9-.6 1.7-.7 2.3-.4.6.4.9.9 1 1.7 0 .7-.4 1.4-1.2 2-1.3 1-2.9 1.7-4.7 2.2-2 .4-3.8.7-5.5.7zm-.8-26.7c-2.8 0-4.9.9-6.5 2.6s-2.5 4-2.8 6.8h17.7c-.1-3-.9-5.3-2.3-6.9-1.5-1.7-3.5-2.5-6.1-2.5zm30.7 26.7c-2.6 0-4.9-.6-6.8-1.9-1.9-1.2-3.4-3-4.5-5.3s-1.6-4.9-1.6-8 .5-5.8 1.6-8.1 2.6-4 4.5-5.2 4.2-1.8 6.8-1.8c2.3 0 4.3.5 6 1.5s3 2.4 3.9 4.1v-16.2c0-1.6.8-2.5 2.5-2.5 1.6 0 2.4.8 2.4 2.5v38.2c0 1.7-.8 2.5-2.4 2.5s-2.4-.8-2.4-2.5v-3.1c-.9 1.8-2.2 3.2-3.9 4.2-1.8 1-3.8 1.6-6.1 1.6zm1-3.9c2.7 0 4.9-1 6.5-2.9s2.5-4.7 2.5-8.3c0-3.6-.8-6.4-2.5-8.3-1.6-1.9-3.8-2.9-6.5-2.9-2.8 0-5 1-6.6 2.9-1.6 1.9-2.4 4.7-2.4 8.3 0 3.6.8 6.4 2.4 8.3s3.8 2.9 6.6 2.9zm53.1 3.9c-2.3 0-4.3-.5-6.1-1.5-1.8-1-3.1-2.4-3.9-4.2v3.1c0 1.7-.8 2.5-2.4 2.5s-2.4-.8-2.4-2.5v-38.2c0-1.6.8-2.5 2.4-2.5s2.5.8 2.5 2.5v16.2c.8-1.7 2.1-3.1 3.9-4.1s3.8-1.5 6-1.5c2.6 0 4.9.6 6.8 1.8 1.9 1.2 3.4 3 4.5 5.2 1.1 2.3 1.6 5 1.6 8.1s-.5 5.8-1.6 8c-1.1 2.3-2.6 4-4.5 5.3-1.9 1.1-4.2 1.8-6.8 1.8zm-1-3.9c2.7 0 4.9-1 6.5-2.9s2.5-4.7 2.5-8.3c0-3.6-.8-6.4-2.5-8.3-1.6-1.9-3.8-2.9-6.5-2.9s-4.9 1-6.5 2.9-2.5 4.7-2.5 8.3c0 3.6.8 6.4 2.5 8.3 1.6 1.9 3.8 2.9 6.5 2.9zm31.6 3.9c-7 0-10.5-3.9-10.5-11.6v-16.1c0-1.6.8-2.5 2.4-2.5 1.6 0 2.5.8 2.5 2.5v16c0 2.6.5 4.5 1.6 5.8 1.1 1.2 2.7 1.9 5 1.9 2.5 0 4.5-.8 6.1-2.5s2.3-3.9 2.3-6.6v-14.5c0-1.6.8-2.5 2.5-2.5 1.6 0 2.4.8 2.4 2.5v25c0 1.7-.8 2.5-2.3 2.5-1.6 0-2.4-.8-2.4-2.5v-2.8c-.9 1.8-2.2 3.1-3.9 4.1-1.7.8-3.6 1.3-5.7 1.3zm34.5 0c-2.6 0-4.9-.6-6.8-1.9-1.9-1.2-3.4-3-4.5-5.3s-1.6-4.9-1.6-8 .5-5.8 1.6-8.1 2.6-4 4.5-5.2 4.2-1.8 6.8-1.8c2.3 0 4.3.5 6 1.5s3 2.4 3.9 4.1v-16.2c0-1.6.8-2.5 2.5-2.5 1.6 0 2.4.8 2.4 2.5v38.2c0 1.7-.8 2.5-2.4 2.5s-2.4-.8-2.4-2.5v-3.1c-.9 1.8-2.2 3.2-3.9 4.2-1.8 1-3.8 1.6-6.1 1.6zm1-3.9c2.7 0 4.9-1 6.5-2.9s2.5-4.7 2.5-8.3c0-3.6-.8-6.4-2.5-8.3-1.6-1.9-3.8-2.9-6.5-2.9-2.8 0-5 1-6.6 2.9s-2.4 4.7-2.4 8.3c0 3.6.8 6.4 2.4 8.3s3.8 2.9 6.6 2.9zm34 3.9c-2.6 0-4.9-.6-6.8-1.9-1.9-1.2-3.4-3-4.5-5.3s-1.6-4.9-1.6-8 .5-5.8 1.6-8.1 2.6-4 4.5-5.2 4.2-1.8 6.8-1.8c2.3 0 4.3.5 6 1.5s3 2.4 3.9 4.1v-16.2c0-1.6.8-2.5 2.5-2.5 1.6 0 2.4.8 2.4 2.5v38.2c0 1.7-.8 2.5-2.4 2.5s-2.4-.8-2.4-2.5v-3.1c-.9 1.8-2.2 3.2-3.9 4.2-1.8 1-3.8 1.6-6.1 1.6zm1-3.9c2.7 0 4.9-1 6.5-2.9s2.5-4.7 2.5-8.3c0-3.6-.8-6.4-2.5-8.3-1.6-1.9-3.8-2.9-6.5-2.9-2.8 0-5 1-6.6 2.9s-2.4 4.7-2.4 8.3c0 3.6.8 6.4 2.4 8.3 1.6 1.9 3.8 2.9 6.6 2.9zm29.4 14.5c-.9 0-1.5-.4-1.9-1.1-.3-.7-.3-1.5.1-2.4l3.7-8.3-11-25.7c-.4-.9-.4-1.7 0-2.4s1.1-1 2.2-1 1.9.6 2.5 1.9l9.1 22.2 9.1-22.2c.3-.7.7-1.2 1-1.5.4-.3.9-.4 1.6-.4.9 0 1.5.3 1.9 1 .3.7.3 1.5-.1 2.3l-15.4 35.5c-.3.7-.7 1.2-1.1 1.5-.5.5-1.1.6-1.7.6zm43.8-10.8c-1.6 0-2.4-.8-2.4-2.5v-23.3h-3.8c-1.4 0-2.1-.6-2.1-1.9 0-1.2.7-1.9 2.1-1.9h3.8v-1c0-7.5 3.7-11.5 11-12.2l1.7-.2c.7 0 1.2.1 1.6.5.3.4.5.8.5 1.3s-.1 1-.4 1.4-.7.6-1.2.7l-1.4.1c-2.4.2-4.2.9-5.3 2.2-1.1 1.3-1.7 3.2-1.7 5.6v1.6h6.5c1.4 0 2.1.6 2.1 1.9s-.7 1.9-2.1 1.9h-6.5v23.3c.1 1.7-.8 2.5-2.4 2.5zm27.3.2c-2.8 0-5.3-.6-7.4-1.9-2.1-1.2-3.7-3-4.8-5.3-1.1-2.3-1.7-4.9-1.7-8s.6-5.8 1.7-8c1.1-2.3 2.8-4 4.8-5.3 2.1-1.2 4.5-1.9 7.4-1.9 2.8 0 5.3.6 7.4 1.9 2.1 1.2 3.7 3 4.9 5.3 1.1 2.3 1.7 4.9 1.7 8s-.6 5.8-1.7 8c-1.1 2.3-2.8 4-4.9 5.3-2.1 1.2-4.6 1.9-7.4 1.9zm0-3.9c2.7 0 4.9-1 6.5-2.9s2.5-4.7 2.5-8.3c0-3.6-.8-6.4-2.5-8.3-1.6-1.9-3.8-2.9-6.5-2.9-2.8 0-5 1-6.6 2.9s-2.4 4.7-2.4 8.3c0 3.6.8 6.4 2.4 8.3 1.7 1.9 3.9 2.9 6.6 2.9zm23.7 3.7c-1.6 0-2.5-.8-2.5-2.5v-25c0-1.6.8-2.5 2.3-2.5 1.6 0 2.4.8 2.4 2.5v3.2c.8-1.8 2-3.3 3.7-4.2 1.7-1 3.7-1.5 6-1.6 1.3-.1 2 .5 2 1.9.1 1.4-.6 2.2-2.2 2.3l-1 .1c-2.8.2-4.9 1.1-6.3 2.6-1.4 1.5-2.2 3.6-2.2 6.2v14.5c.3 1.7-.5 2.5-2.2 2.5zm49.3.2c-2.3 0-4.3-.5-6.1-1.5s-3.1-2.4-3.9-4.2v3.1c0 1.7-.8 2.5-2.4 2.5s-2.4-.8-2.4-2.5v-38.2c0-1.6.8-2.5 2.4-2.5 1.6 0 2.5.8 2.5 2.5v16.2c.8-1.7 2.1-3.1 3.9-4.1 1.8-1 3.8-1.5 6-1.5 2.6 0 4.9.6 6.8 1.8 1.9 1.2 3.4 3 4.5 5.2 1.1 2.3 1.6 5 1.6 8.1s-.5 5.8-1.6 8c-1.1 2.3-2.6 4-4.5 5.3-1.9 1.1-4.2 1.8-6.8 1.8zm-1-3.9c2.7 0 4.9-1 6.5-2.9s2.5-4.7 2.5-8.3c0-3.6-.8-6.4-2.5-8.3-1.6-1.9-3.8-2.9-6.5-2.9s-4.9 1-6.5 2.9-2.5 4.7-2.5 8.3c0 3.6.8 6.4 2.5 8.3 1.6 1.9 3.8 2.9 6.5 2.9zm34.4 3.9c-4.6 0-8.2-1.4-10.9-4.1s-4-6.4-4-11c0-3 .6-5.7 1.8-8s2.9-4.1 5-5.3c2.1-1.3 4.5-1.9 7.3-1.9 4 0 7.1 1.3 9.3 3.8s3.4 6 3.4 10.5c0 1.2-.7 1.9-2.1 1.9h-19.9c.2 3.3 1.1 5.9 2.9 7.6 1.8 1.7 4.2 2.6 7.3 2.6 1.3 0 2.7-.2 4-.5 1.4-.3 2.7-1 4-1.8.9-.6 1.7-.7 2.3-.4.6.4.9.9 1 1.7 0 .7-.4 1.4-1.2 2-1.3 1-2.9 1.7-4.7 2.2-2 .4-3.8.7-5.5.7zm-.8-26.7c-2.8 0-4.9.9-6.5 2.6s-2.5 4-2.8 6.8h17.7c-.1-3-.9-5.3-2.3-6.9-1.4-1.7-3.5-2.5-6.1-2.5zm31.3 26.7c-3.4 0-6-.9-7.7-2.7-1.7-1.8-2.6-4.5-2.6-7.9v-15.3h-4c-1.4 0-2.1-.6-2.1-1.9 0-1.2.7-1.9 2.1-1.9h4v-6.9c0-1.6.8-2.5 2.5-2.5 1.6 0 2.4.8 2.4 2.5v6.9h7.6c1.4 0 2.1.6 2.1 1.9s-.7 1.9-2.1 1.9h-7.6v14.8c0 2.3.5 4 1.4 5.2 1 1.2 2.5 1.8 4.7 1.8.8 0 1.4-.1 1.9-.2.5-.2 1-.2 1.4-.2s.7.1.9.4c.2.3.4.8.4 1.4 0 .5-.1.9-.3 1.3-.2.4-.5.7-.9.8-.5.2-1.1.3-1.9.5-.8 0-1.5.1-2.2.1z"/><path class="st2" d="M285.3-1092.3c-3.4 0-6-.9-7.7-2.7-1.7-1.8-2.6-4.5-2.6-7.9v-15.3h-4c-1.4 0-2.1-.6-2.1-1.9 0-1.2.7-1.9 2.1-1.9h4v-6.9c0-1.6.8-2.5 2.5-2.5 1.6 0 2.4.8 2.4 2.5v6.9h7.6c1.4 0 2.1.6 2.1 1.9s-.7 1.9-2.1 1.9h-7.6v14.8c0 2.3.5 4 1.4 5.2 1 1.2 2.5 1.8 4.7 1.8.8 0 1.4-.1 1.9-.2.5-.2 1-.2 1.4-.2s.7.1.9.4c.2.3.4.8.4 1.4 0 .5-.1.9-.3 1.3-.2.4-.5.7-.9.8-.5.2-1.1.3-1.9.5-.9 0-1.6.1-2.2.1zm22.1 0c-4.6 0-8.2-1.4-10.9-4.1-2.7-2.7-4-6.4-4-11 0-3 .6-5.7 1.8-8 1.2-2.3 2.9-4.1 5-5.3 2.1-1.3 4.5-1.9 7.3-1.9 4 0 7.1 1.3 9.3 3.8 2.2 2.5 3.4 6 3.4 10.5 0 1.2-.7 1.9-2.1 1.9h-19.9c.2 3.3 1.1 5.9 2.9 7.6s4.2 2.6 7.3 2.6c1.3 0 2.7-.2 4-.5 1.4-.3 2.7-1 4-1.8.9-.6 1.7-.7 2.3-.4.6.4.9.9 1 1.7 0 .7-.4 1.4-1.2 2-1.3 1-2.9 1.7-4.7 2.2-2 .4-3.8.7-5.5.7zm-.8-26.7c-2.8 0-4.9.9-6.5 2.6s-2.5 4-2.8 6.8H315c-.1-3-.9-5.3-2.3-6.9-1.4-1.7-3.5-2.5-6.1-2.5zm22.1 26.5c-1.6 0-2.5-.8-2.5-2.5v-25c0-1.6.8-2.5 2.3-2.5 1.6 0 2.4.8 2.4 2.5v3.2c.8-1.8 2-3.3 3.7-4.2 1.7-1 3.7-1.5 6-1.6 1.3-.1 2 .5 2 1.9.1 1.4-.6 2.2-2.2 2.3l-1 .1c-2.8.2-4.9 1.1-6.3 2.6s-2.2 3.6-2.2 6.2v14.5c.2 1.7-.6 2.5-2.2 2.5zm36.9 0c-1.6 0-2.4-.8-2.4-2.5v-38.2c0-1.6.8-2.5 2.4-2.5s2.5.8 2.5 2.5v15.9c1-1.8 2.3-3.1 4.1-4 1.7-.9 3.7-1.4 5.9-1.4 6.9 0 10.4 3.8 10.4 11.5v16.1c0 1.7-.8 2.5-2.4 2.5s-2.5-.8-2.5-2.5v-15.8c0-2.7-.5-4.7-1.6-6s-2.8-1.9-5.1-1.9c-2.7 0-4.8.8-6.4 2.5s-2.4 3.9-2.4 6.6v14.5c0 1.9-.8 2.7-2.5 2.7zm44.9.2c-4.6 0-8.2-1.4-10.9-4.1-2.7-2.7-4-6.4-4-11 0-3 .6-5.7 1.8-8 1.2-2.3 2.9-4.1 5-5.3 2.1-1.3 4.5-1.9 7.3-1.9 4 0 7.1 1.3 9.3 3.8 2.2 2.5 3.4 6 3.4 10.5 0 1.2-.7 1.9-2.1 1.9h-19.9c.2 3.3 1.1 5.9 2.9 7.6s4.2 2.6 7.3 2.6c1.3 0 2.7-.2 4-.5 1.4-.3 2.7-1 4-1.8.9-.6 1.7-.7 2.3-.4.6.4.9.9 1 1.7 0 .7-.4 1.4-1.2 2-1.3 1-2.9 1.7-4.7 2.2-2 .4-3.8.7-5.5.7zm-.8-26.7c-2.8 0-4.9.9-6.5 2.6s-2.5 4-2.8 6.8H418c-.1-3-.9-5.3-2.3-6.9-1.4-1.7-3.4-2.5-6-2.5zm28.8 26.7c-2 0-3.8-.4-5.4-1.2-1.6-.8-2.8-1.9-3.8-3.2-.9-1.4-1.4-2.9-1.4-4.6 0-2.1.5-3.8 1.7-5 1.1-1.2 2.9-2.1 5.5-2.7 2.5-.5 6-.8 10.4-.8h1.9v-1.9c0-2.5-.5-4.3-1.5-5.4s-2.7-1.7-4.9-1.7c-1.4 0-2.8.2-4.2.5-1.4.4-2.9.9-4.4 1.7-.7.4-1.3.4-1.7.2-.5-.2-.8-.6-1-1.1s-.2-1 0-1.6c.2-.5.6-1 1.2-1.2 1.7-.9 3.5-1.5 5.2-1.9s3.4-.6 5-.6c3.8 0 6.6.9 8.4 2.8 1.8 1.8 2.7 4.7 2.7 8.6v16.3c0 1.7-.7 2.5-2.2 2.5-1.6 0-2.3-.8-2.3-2.5v-2.9c-.8 1.7-1.9 3.1-3.5 4.1-1.8 1.1-3.6 1.6-5.7 1.6zm.7-3.7c2.4 0 4.4-.8 5.9-2.5s2.3-3.8 2.3-6.3v-1.8h-1.9c-3.2 0-5.8.2-7.7.5-1.9.3-3.2.8-3.9 1.6-.7.7-1.1 1.8-1.1 3 0 1.6.6 3 1.7 4 1.2 1 2.8 1.5 4.7 1.5zm30.8 3.7c-2.9 0-5.1-.9-6.6-2.6s-2.3-4.3-2.3-7.6v-30.6c0-1.6.8-2.5 2.4-2.5s2.5.8 2.5 2.5v30.3c0 4.3 1.7 6.4 5.1 6.4.4 0 .7 0 1-.1.3 0 .6-.1.8-.1.4 0 .8.1.9.3.2.2.3.7.3 1.4 0 1.4-.7 2.1-2 2.3-.3.1-.7.1-1 .2-.5 0-.8.1-1.1.1zm20 0c-3.4 0-6-.9-7.7-2.7-1.7-1.8-2.6-4.5-2.6-7.9v-15.3h-4c-1.4 0-2.1-.6-2.1-1.9 0-1.2.7-1.9 2.1-1.9h4v-6.9c0-1.6.8-2.5 2.5-2.5 1.6 0 2.4.8 2.4 2.5v6.9h7.6c1.4 0 2.1.6 2.1 1.9s-.7 1.9-2.1 1.9h-7.6v14.8c0 2.3.5 4 1.4 5.2 1 1.2 2.5 1.8 4.7 1.8.8 0 1.4-.1 1.9-.2.5-.2 1-.2 1.4-.2s.7.1.9.4c.2.3.4.8.4 1.4 0 .5-.1.9-.3 1.3-.2.4-.5.7-.9.8-.5.2-1.1.3-1.9.5-.8 0-1.5.1-2.2.1zm12.1-.2c-1.6 0-2.4-.8-2.4-2.5v-38.2c0-1.6.8-2.5 2.4-2.5s2.5.8 2.5 2.5v15.9c1-1.8 2.3-3.1 4.1-4 1.7-.9 3.7-1.4 5.9-1.4 6.9 0 10.4 3.8 10.4 11.5v16.1c0 1.7-.8 2.5-2.4 2.5-1.6 0-2.5-.8-2.5-2.5v-15.8c0-2.7-.5-4.7-1.6-6s-2.8-1.9-5.1-1.9c-2.7 0-4.8.8-6.4 2.5s-2.4 3.9-2.4 6.6v14.5c0 1.9-.8 2.7-2.5 2.7z"/><path id="Path_50_00000085958117778013247920000003097857331987773615_" class="st0" d="M185.5 194.3c-3.1-.5-6.2-1.5-8.9-3.1-.3-.2-.6-.1-.8.1L138.1 229c-4.8 5.3-12.9 5.7-18.2.9-5.2-4.7-5.7-12.6-1.2-17.9l.3-.3.1-.1c.3-.3.5-.6.8-.8l37.4-37.4c.2-.2.2-.5 0-.7l-6.4-6.4c-.2-.2-.5-.2-.7 0l-37.4 37.4-.1.1-.2.2c-5.1 5-13.2 4.9-18.2-.2-4.8-4.9-4.9-12.8-.2-17.8l.4-.4 37.3-37.3c.2-.2.2-.5 0-.7l-6.4-6.4c-.2-.2-.5-.2-.7 0L87 178.7c-9 9-9 23.5 0 32.5 4.3 4.3 10.1 6.7 16.2 6.7.8 0 1.7 0 2.5-.1-.1.8-.1 1.7-.1 2.5 0 12.7 10.3 23 23 23 6.1 0 11.9-2.4 16.2-6.7l41.1-41.1c.3-.3.3-.7 0-.9-.1-.2-.3-.2-.4-.3z"/><path id="Path_50-2_00000134939097072795003500000012095278482773809085_" class="st0" d="M81.5 84.4c3.1.5 6.2 1.5 8.9 3.1.3.2.6.1.8-.1l37.7-37.7c4.8-5.3 12.9-5.7 18.2-.9 5.2 4.7 5.7 12.6 1.2 17.9l-.3.3-.1.1c-.3.3-.5.6-.8.8l-37.4 37.4c-.2.2-.2.5 0 .7l6.4 6.4c.2.2.5.2.7 0L154.2 75l.1-.1.2-.2c5.1-5 13.2-4.9 18.2.2 4.8 4.9 4.9 12.8.2 17.8l-.4.4-37.3 37.3c-.2.2-.2.5 0 .7l6.4 6.4c.2.2.5.2.7 0L180 100c9-9 9-23.5 0-32.5-4.3-4.3-10.1-6.7-16.2-6.7-.8 0-1.7 0-2.5.1.1-.8.1-1.7.1-2.5 0-12.7-10.3-23-23-23-6.1 0-11.9 2.4-16.2 6.7L81.1 83.3c-.3.3-.3.7 0 .9.1.1.3.2.4.2z"/><path id="Path_75_00000135652878445633359500000015129675701995559830_" class="st1" d="M188.5 87.3c-.5 3.1-1.5 6.2-3.1 8.9-.2.3-.1.6.1.8l37.7 37.7c5.3 4.8 5.7 12.9.9 18.2l-.1.1c-4.3 5.2-12 6-17.3 1.6-.3-.2-.6-.5-.9-.8l-.1-.1c-.3-.3-.6-.5-.8-.8l-37.4-37.4c-.2-.2-.5-.2-.7 0l-6.4 6.4c-.2.2-.2.5 0 .7l37.4 37.4.1.1.2.2c5 5.1 4.9 13.2-.2 18.2-4.9 4.8-12.8 4.9-17.8.2l-.4-.4-34.2-34.2-13.6-13.6-37.8-37.7c-9-9-23.5-9-32.5 0-4.2 4.4-6.6 10.2-6.6 16.3 0 .8 0 1.7.1 2.5-.8-.1-1.7-.1-2.5-.1-12.7 0-23 10.3-23 23 0 6.1 2.4 11.9 6.7 16.2l41.1 41.1c.3.3.7.3.9 0 .1-.1.2-.2.2-.4.5-3.1 1.5-6.2 3.1-8.9.2-.3.1-.6-.1-.8L43.8 144c-5.3-4.8-5.7-12.9-.9-18.2 4.8-4.8 12.5-5.3 18-1.1l.2.2.1.1c.3.3.6.5.8.8l37.4 37.4c.2.2.5.2.7 0l6.4-6.4c.2-.2.2-.5 0-.7l-37.4-37.4-.1-.1-.2-.2c-5-5.1-4.9-13.2.2-18.2 4.9-4.8 12.8-4.9 17.8-.2l.4.4 37.1 37.1 13.8 13.8 34.6 34.6c9 9 23.5 9 32.5 0 4.3-4.3 6.7-10.1 6.7-16.2 0-.8 0-1.7-.1-2.5.8.1 1.7.1 2.5.1 12.7 0 23-10.3 23-23 0-6.1-2.4-11.9-6.7-16.2l-41-41.1c-.3-.3-.7-.3-.9 0-.1.1-.2.2-.2.3z"/><path class="st0" d="M360.2 83.8c-1.8 0-3.2.4-4.2 1.1s-1.9 1.8-2.7 3.4l-39.2 74.2-39.4-74.2c-.8-1.6-1.8-2.7-2.8-3.4-1-.7-2.4-1.1-4.1-1.1-4.1 0-6.2 2.2-6.2 6.5v98c0 4.3 2.1 6.5 6.2 6.5 4 0 6-2.2 6-6.5v-77.8l34.4 63.7c.6 1.3 1.4 2.2 2.3 2.9s2.1 1 3.6 1 2.7-.3 3.5-.9c.8-.6 1.6-1.6 2.3-3l34-63.9v78c0 4.3 2.1 6.5 6.2 6.5s6.2-2.2 6.2-6.5v-98c0-4.3-2.1-6.5-6.1-6.5zm88.9 70.1c0-11.4-2.9-20.5-8.7-27-5.8-6.5-13.9-9.9-24-9.9-7.1 0-13.4 1.6-18.8 4.9-5.4 3.2-9.7 7.9-12.8 13.8-3.1 5.9-4.6 12.8-4.6 20.5 0 11.9 3.5 21.4 10.4 28.4 6.9 6.9 16.4 10.5 28.2 10.5 4.4 0 9-.7 13.7-2s8.8-3.3 12.1-5.7c2.2-1.5 3.4-3.3 3.3-5.3s-.9-3.5-2.6-4.5-3.8-.7-6.3.9c-3.2 2.2-6.6 3.8-10 4.6-3.4.9-6.9 1.3-10.2 1.3-7.8 0-14-2.2-18.5-6.6-4.3-4.3-6.8-10.6-7.2-18.8h50.4c3.6 0 5.6-1.7 5.6-5.1zm-56-3.7c.8-6.9 3.1-12.5 7.1-16.7 4-4.3 9.5-6.5 16.4-6.5 6.5 0 11.6 2.1 15.1 6.2 3.5 4 5.4 9.8 5.8 17h-44.4zm127.5-66.4c-4.4 0-6.6 2.2-6.6 6.6v39.9c-2.2-3.9-5.3-7.1-9.4-9.4-4.5-2.6-9.7-3.9-15.6-3.9-6.7 0-12.6 1.6-17.6 4.7s-8.9 7.7-11.6 13.5-4.1 12.8-4.1 20.8c0 7.9 1.4 14.8 4.1 20.6s6.6 10.4 11.6 13.6c5 3.2 10.9 4.8 17.6 4.8 5.9 0 11.1-1.3 15.6-4 4.1-2.4 7.3-5.6 9.5-9.7v6.5c0 4.5 2.2 6.8 6.5 6.8s6.5-2.3 6.5-6.8V90.5c0-4.4-2.2-6.7-6.5-6.7zm-6.3 72.3c0 9.1-2.1 16.1-6.2 21-4.1 4.9-9.6 7.3-16.4 7.3-6.9 0-12.5-2.5-16.5-7.3-4.1-4.9-6.1-11.9-6.1-21 0-9.2 2.1-16.3 6.1-21.1s9.6-7.2 16.5-7.2c6.8 0 12.3 2.4 16.4 7.2 4.1 4.8 6.2 11.9 6.2 21.1zm35.9-54.8c5.6 0 8.5-2.7 8.5-8 0-5.2-2.9-7.9-8.5-7.9s-8.5 2.6-8.5 7.9c0 5.3 2.8 8 8.5 8zm0 16.4c-4.3 0-6.5 2.3-6.5 6.9v62.7c0 4.7 2.2 7.1 6.5 7.1 4.4 0 6.6-2.4 6.6-7.1v-62.7c0-4.6-2.2-6.9-6.6-6.9z"/><path class="st1" d="M645.3 137.8c5-2 9-5 11.9-8.9 3.1-4.2 4.7-9.4 4.7-15.4 0-9-3.1-16-9.3-21-6.1-5-14.9-7.5-26.1-7.5h-36.3c-4.8 0-7.3 2.4-7.3 7.3v94.3c0 4.8 2.4 7.3 7.3 7.3h38.2c11.4 0 20.3-2.6 26.6-7.7 6.3-5.2 9.5-12.7 9.5-22.4 0-6.8-1.8-12.5-5.4-16.9-3.4-4.4-8-7.4-13.8-9.1zm6 25.6c0 13.1-7.9 19.4-24.2 19.4h-31.2V144h31.2c16.3 0 24.2 6.4 24.2 19.4zm-55.4-30.2V95.7h28.8c16.2 0 24 6.2 24 18.8s-7.9 18.7-24 18.7h-28.8zm139.9-15.8c-4.4 0-6.6 2.2-6.6 6.6v37.1c0 6.9-2 12.5-5.9 16.7-3.9 4.1-9 6.3-15.2 6.3-5.7 0-9.9-1.6-12.5-4.6-2.6-3.1-4-8-4-14.5v-41c0-4.4-2.2-6.6-6.6-6.6-4.3 0-6.5 2.2-6.5 6.6v41.1c0 19.9 9.1 29.9 27.2 29.9 5.3 0 10.2-1.2 14.5-3.6 3.9-2.2 7-5.3 9.4-9.3v5.8c0 4.5 2.2 6.8 6.5 6.8 4.2 0 6.3-2.3 6.3-6.8V124c-.1-4.4-2.3-6.6-6.6-6.6zm83.4-33.6c-4.4 0-6.6 2.2-6.6 6.6v39.9c-2.2-3.9-5.3-7.1-9.4-9.4-4.5-2.6-9.7-3.9-15.6-3.9-6.7 0-12.6 1.6-17.6 4.7s-8.9 7.7-11.6 13.5c-2.7 5.8-4.1 12.8-4.1 20.8 0 7.9 1.4 14.8 4.1 20.6 2.7 5.8 6.6 10.4 11.6 13.6 5 3.2 10.9 4.8 17.6 4.8 5.9 0 11.1-1.3 15.6-4 4.1-2.4 7.3-5.6 9.5-9.7v6.5c0 4.5 2.2 6.8 6.5 6.8s6.5-2.3 6.5-6.8V90.5c0-4.4-2.2-6.7-6.5-6.7zm-6.3 72.3c0 9.1-2.1 16.1-6.2 21-4.1 4.9-9.6 7.3-16.4 7.3-6.9 0-12.5-2.5-16.5-7.3-4.1-4.9-6.1-11.9-6.1-21 0-9.2 2.1-16.3 6.1-21.1s9.6-7.2 16.5-7.2c6.8 0 12.3 2.4 16.4 7.2 4.1 4.8 6.2 11.9 6.2 21.1zm89.7-72.3c-4.4 0-6.6 2.2-6.6 6.6v39.9c-2.2-3.9-5.3-7.1-9.4-9.4-4.5-2.6-9.7-3.9-15.6-3.9-6.7 0-12.6 1.6-17.6 4.7s-8.9 7.7-11.6 13.5c-2.7 5.8-4.1 12.8-4.1 20.8 0 7.9 1.4 14.8 4.1 20.6 2.7 5.8 6.6 10.4 11.6 13.6 5 3.2 10.9 4.8 17.6 4.8 5.9 0 11.1-1.3 15.6-4 4.1-2.4 7.3-5.6 9.5-9.7v6.5c0 4.5 2.2 6.8 6.5 6.8s6.5-2.3 6.5-6.8V90.5c0-4.4-2.2-6.7-6.5-6.7zm-6.4 72.3c0 9.1-2.1 16.1-6.2 21-4.1 4.9-9.6 7.3-16.4 7.3-6.9 0-12.5-2.5-16.5-7.3-4.1-4.9-6.1-11.9-6.1-21 0-9.2 2.1-16.3 6.1-21.1 4.1-4.8 9.6-7.2 16.5-7.2 6.8 0 12.3 2.4 16.4 7.2 4.2 4.8 6.2 11.9 6.2 21.1zm92.9-35.9c-.9-1.9-2.6-2.8-5.1-2.8-1.8 0-3.2.4-4.2 1.1-1 .8-1.9 2.1-2.7 4l-23 55.8-22.8-55.8c-1.4-3.4-3.6-5.1-6.6-5.1-2.9 0-4.9.9-5.9 2.8-1 1.8-1 4 .1 6.4l28.1 65.5-9.3 21c-1 2.3-1 4.5-.1 6.3.9 1.9 2.6 2.9 5.1 2.9 1.8 0 3.2-.4 4.3-1.1 1-.7 2-2.1 2.8-4l39.2-90.8c.9-2.2.9-4.4.1-6.2z"/><path class="st2" d="M273.9 267.4c-1.2 0-1.8-.6-1.8-1.9v-12.9L262 238.7c-.4-.6-.5-1.1-.2-1.7s.7-.8 1.5-.8 1.4.4 2 1.2l8.8 12.1 8.8-12.1c.6-.8 1.2-1.2 2-1.2.7 0 1.2.3 1.4.8.2.5.1 1.1-.3 1.8l-10.1 13.9v12.8c-.2 1.2-.8 1.9-2 1.9zm21.6.1c-2.1 0-3.8-.4-5.3-1.3s-2.7-2.2-3.5-3.8c-.8-1.6-1.2-3.6-1.2-5.8 0-2.2.4-4.2 1.2-5.8.8-1.6 2-2.9 3.5-3.8 1.5-.9 3.3-1.3 5.3-1.3s3.8.4 5.3 1.3 2.7 2.2 3.5 3.8 1.2 3.6 1.2 5.8c0 2.2-.4 4.2-1.2 5.8-.8 1.6-2 2.9-3.5 3.8-1.5.8-3.3 1.3-5.3 1.3zm0-2.9c2 0 3.5-.7 4.7-2.1s1.8-3.4 1.8-6-.6-4.6-1.8-6c-1.2-1.4-2.8-2.1-4.7-2.1-2 0-3.6.7-4.8 2.1-1.2 1.4-1.8 3.4-1.8 6s.6 4.6 1.8 6 2.8 2.1 4.8 2.1zm22.9 2.9c-5.1 0-7.6-2.8-7.6-8.4v-11.6c0-1.2.6-1.8 1.7-1.8 1.2 0 1.8.6 1.8 1.8V259c0 1.9.4 3.3 1.2 4.2.8.9 2 1.3 3.6 1.3 1.8 0 3.3-.6 4.4-1.8 1.1-1.2 1.7-2.8 1.7-4.8v-10.5c0-1.2.6-1.8 1.8-1.8 1.2 0 1.7.6 1.7 1.8v18.1c0 1.2-.6 1.8-1.7 1.8-1.2 0-1.7-.6-1.7-1.8v-2c-.7 1.3-1.6 2.3-2.8 2.9-1.3.7-2.6 1.1-4.1 1.1zm18.6-.1c-1.2 0-1.8-.6-1.8-1.8v-18.1c0-1.2.6-1.8 1.7-1.8 1.2 0 1.7.6 1.7 1.8v2.3c.6-1.3 1.5-2.4 2.7-3.1 1.2-.7 2.7-1.1 4.3-1.2.9-.1 1.4.4 1.5 1.4s-.4 1.6-1.6 1.7l-.7.1c-2 .2-3.5.8-4.6 1.9-1 1.1-1.6 2.6-1.6 4.5v10.5c.2 1.2-.4 1.8-1.6 1.8zm34.8 0c-1.2 0-1.8-.6-1.8-1.9v-26h-9.8c-1.1 0-1.7-.5-1.7-1.6 0-1 .6-1.5 1.7-1.5h23.2c1.1 0 1.7.5 1.7 1.5s-.6 1.6-1.7 1.6h-9.8v26c0 1.3-.6 1.9-1.8 1.9zm14.9 0c-1.2 0-1.8-.6-1.8-1.8v-18.1c0-1.2.6-1.8 1.7-1.8 1.2 0 1.7.6 1.7 1.8v2.3c.6-1.3 1.5-2.4 2.7-3.1 1.2-.7 2.7-1.1 4.3-1.2.9-.1 1.4.4 1.5 1.4s-.4 1.6-1.6 1.7l-.7.1c-2 .2-3.5.8-4.6 1.9-1 1.1-1.6 2.6-1.6 4.5v10.5c.2 1.2-.4 1.8-1.6 1.8zm21.2.1c-5.1 0-7.6-2.8-7.6-8.4v-11.6c0-1.2.6-1.8 1.7-1.8 1.2 0 1.8.6 1.8 1.8V259c0 1.9.4 3.3 1.2 4.2.8.9 2 1.3 3.6 1.3 1.8 0 3.3-.6 4.4-1.8 1.1-1.2 1.7-2.8 1.7-4.8v-10.5c0-1.2.6-1.8 1.8-1.8 1.2 0 1.7.6 1.7 1.8v18.1c0 1.2-.6 1.8-1.7 1.8-1.2 0-1.7-.6-1.7-1.8v-2c-.7 1.3-1.6 2.3-2.8 2.9-1.2.7-2.6 1.1-4.1 1.1zm24.1 0c-1.3 0-2.6-.2-3.9-.5s-2.5-.9-3.7-1.6c-.5-.3-.8-.7-.8-1.2s.2-.9.6-1.2c.4-.3.9-.3 1.4 0 1.1.7 2.2 1.2 3.3 1.5 1.1.3 2.1.4 3.2.4 1.7 0 2.9-.3 3.7-.9.8-.6 1.3-1.4 1.3-2.5 0-.8-.3-1.5-.8-1.9-.6-.5-1.4-.8-2.6-1.1l-4-.9c-3.6-.8-5.4-2.6-5.4-5.6 0-1.9.8-3.4 2.3-4.6 1.5-1.2 3.5-1.7 6-1.7 1.2 0 2.4.2 3.6.5s2.2.9 3.1 1.6c.5.3.7.8.7 1.3-.1.5-.3.9-.7 1.2-.4.3-.9.2-1.4-.1-.9-.6-1.8-1-2.7-1.3-.9-.3-1.8-.4-2.7-.4-1.6 0-2.9.3-3.7 1-.8.6-1.3 1.5-1.3 2.5 0 1.6 1.1 2.7 3.2 3.1l4 .8c1.9.4 3.3 1.1 4.2 1.9 1 .9 1.4 2.1 1.4 3.6 0 1.9-.8 3.5-2.3 4.6-1.5.9-3.5 1.5-6 1.5zm22 0c-2.5 0-4.4-.7-5.6-2s-1.9-3.2-1.9-5.7v-11.1h-2.9c-1 0-1.5-.5-1.5-1.4s.5-1.3 1.5-1.3h2.9v-5c0-1.2.6-1.8 1.8-1.8 1.2 0 1.7.6 1.7 1.8v5h5.5c1 0 1.5.4 1.5 1.3s-.5 1.4-1.5 1.4H450v10.7c0 1.7.3 2.9 1 3.8s1.8 1.3 3.4 1.3c.6 0 1-.1 1.4-.2s.7-.2 1-.2.5.1.7.3c.2.2.3.6.3 1 0 .3-.1.7-.2 1s-.4.5-.7.6c-.3.1-.8.2-1.4.3-.5.1-1.1.2-1.5.2zm16 0c-3.3 0-6-1-7.9-2.9-1.9-2-2.9-4.6-2.9-8 0-2.2.4-4.1 1.3-5.8s2.1-3 3.6-3.9 3.3-1.4 5.3-1.4c2.9 0 5.1.9 6.7 2.8 1.6 1.8 2.4 4.4 2.4 7.6 0 .9-.5 1.3-1.5 1.3h-14.4c.1 2.4.8 4.2 2.1 5.5 1.3 1.3 3 1.9 5.3 1.9 1 0 1.9-.1 2.9-.4 1-.2 1.9-.7 2.9-1.3.7-.4 1.2-.5 1.7-.3.4.3.7.7.7 1.2s-.3 1-.9 1.4c-1 .7-2.1 1.2-3.4 1.6s-2.6.7-3.9.7zm-.5-19.3c-2 0-3.6.6-4.7 1.9-1.2 1.2-1.8 2.9-2 4.9h12.8c-.1-2.1-.6-3.8-1.7-5-1.1-1.2-2.6-1.8-4.4-1.8zm22.2 19.3c-1.9 0-3.5-.4-4.9-1.3s-2.5-2.2-3.3-3.8c-.8-1.6-1.2-3.6-1.2-5.8 0-2.3.4-4.2 1.2-5.8.8-1.6 1.9-2.9 3.3-3.8 1.4-.9 3-1.3 4.9-1.3 1.7 0 3.1.4 4.4 1.1 1.3.7 2.2 1.7 2.8 3v-11.7c0-1.2.6-1.8 1.8-1.8 1.2 0 1.7.6 1.7 1.8v27.6c0 1.2-.6 1.8-1.7 1.8s-1.7-.6-1.7-1.8v-2.3c-.6 1.3-1.6 2.3-2.8 3.1-1.4.6-2.9 1-4.5 1zm.7-2.9c2 0 3.5-.7 4.7-2.1s1.8-3.4 1.8-6-.6-4.6-1.8-6c-1.2-1.4-2.8-2.1-4.7-2.1-2 0-3.6.7-4.8 2.1-1.2 1.4-1.8 3.4-1.8 6s.6 4.6 1.8 6 2.8 2.1 4.8 2.1zm30.2 2.5c-1.3 0-2-.7-2-2v-26.7c0-1.3.7-2 2-2h10.3c3.2 0 5.6.7 7.3 2.1 1.7 1.4 2.6 3.4 2.6 5.9 0 1.7-.4 3.1-1.3 4.3-.9 1.2-2.1 2.1-3.6 2.6 1.8.5 3.2 1.3 4.2 2.6 1 1.2 1.5 2.8 1.5 4.7 0 2.7-.9 4.8-2.7 6.3-1.8 1.4-4.3 2.2-7.5 2.2h-10.8zm1.5-17h8.3c4.6 0 6.9-1.8 6.9-5.4 0-3.6-2.3-5.4-6.9-5.4h-8.3v10.8zm0 14.1h9c4.6 0 7-1.9 7-5.6 0-3.7-2.3-5.6-7-5.6h-9v11.2zm32.9 3.3c-5.1 0-7.6-2.8-7.6-8.4v-11.6c0-1.2.6-1.8 1.7-1.8 1.2 0 1.8.6 1.8 1.8V259c0 1.9.4 3.3 1.2 4.2.8.9 2 1.3 3.6 1.3 1.8 0 3.3-.6 4.4-1.8 1.1-1.2 1.7-2.8 1.7-4.8v-10.5c0-1.2.6-1.8 1.8-1.8s1.7.6 1.7 1.8v18.1c0 1.2-.6 1.8-1.7 1.8-1.2 0-1.7-.6-1.7-1.8v-2c-.7 1.3-1.6 2.3-2.8 2.9-1.2.7-2.6 1.1-4.1 1.1zm25 0c-1.9 0-3.5-.4-4.9-1.3s-2.5-2.2-3.3-3.8c-.8-1.6-1.2-3.6-1.2-5.8 0-2.3.4-4.2 1.2-5.8s1.9-2.9 3.3-3.8c1.4-.9 3-1.3 4.9-1.3 1.7 0 3.1.4 4.4 1.1 1.3.7 2.2 1.7 2.8 3v-11.7c0-1.2.6-1.8 1.8-1.8s1.7.6 1.7 1.8v27.6c0 1.2-.6 1.8-1.7 1.8-1.2 0-1.7-.6-1.7-1.8v-2.3c-.6 1.3-1.6 2.3-2.8 3.1-1.4.6-2.9 1-4.5 1zm.7-2.9c2 0 3.5-.7 4.7-2.1s1.8-3.4 1.8-6-.6-4.6-1.8-6-2.8-2.1-4.7-2.1c-2 0-3.6.7-4.8 2.1-1.2 1.4-1.8 3.4-1.8 6s.6 4.6 1.8 6c1.2 1.4 2.8 2.1 4.8 2.1zm24.6 2.9c-1.9 0-3.5-.4-4.9-1.3s-2.5-2.2-3.3-3.8c-.8-1.6-1.2-3.6-1.2-5.8 0-2.3.4-4.2 1.2-5.8s1.9-2.9 3.3-3.8c1.4-.9 3-1.3 4.9-1.3 1.7 0 3.1.4 4.4 1.1 1.3.7 2.2 1.7 2.8 3v-11.7c0-1.2.6-1.8 1.8-1.8s1.7.6 1.7 1.8v27.6c0 1.2-.6 1.8-1.7 1.8-1.2 0-1.7-.6-1.7-1.8v-2.3c-.6 1.3-1.6 2.3-2.8 3.1-1.4.6-2.9 1-4.5 1zm.7-2.9c2 0 3.5-.7 4.7-2.1s1.8-3.4 1.8-6-.6-4.6-1.8-6-2.8-2.1-4.7-2.1c-2 0-3.6.7-4.8 2.1-1.2 1.4-1.8 3.4-1.8 6s.6 4.6 1.8 6 2.8 2.1 4.8 2.1zm21.3 10.6c-.7 0-1.1-.3-1.3-.8s-.2-1.1 0-1.7l2.7-6-8-18.6c-.3-.7-.3-1.2 0-1.7s.8-.7 1.6-.7 1.4.5 1.8 1.4l6.6 16 6.6-16c.2-.5.5-.9.7-1.1s.6-.3 1.1-.3c.7 0 1.1.2 1.3.7s.2 1.1 0 1.7l-11.1 25.7c-.2.5-.5.9-.8 1.1-.3.2-.7.3-1.2.3zm31.2-7.8c-1.3 0-1.9-.7-1.9-2v-27c0-1.3.7-2 2-2h15.8c1 0 1.5.5 1.5 1.5s-.5 1.5-1.5 1.5h-14.2v10.7h13.3c1 0 1.6.5 1.6 1.5s-.5 1.5-1.6 1.5h-13.3v12.3c0 1.3-.6 2-1.7 2zm29.4.1c-2.1 0-3.8-.4-5.3-1.3s-2.7-2.2-3.5-3.8c-.8-1.6-1.2-3.6-1.2-5.8 0-2.2.4-4.2 1.2-5.8s2-2.9 3.5-3.8c1.5-.9 3.3-1.3 5.3-1.3s3.8.4 5.3 1.3 2.7 2.2 3.5 3.8 1.2 3.6 1.2 5.8c0 2.2-.4 4.2-1.2 5.8-.8 1.6-2 2.9-3.5 3.8-1.5.8-3.3 1.3-5.3 1.3zm0-2.9c2 0 3.5-.7 4.7-2.1s1.8-3.4 1.8-6-.6-4.6-1.8-6-2.8-2.1-4.7-2.1c-2 0-3.6.7-4.8 2.1-1.2 1.4-1.8 3.4-1.8 6s.6 4.6 1.8 6c1.2 1.4 2.8 2.1 4.8 2.1zm17.2 2.8c-1.2 0-1.8-.6-1.8-1.8v-18.1c0-1.2.6-1.8 1.7-1.8 1.2 0 1.7.6 1.7 1.8v2.3c.6-1.3 1.5-2.4 2.7-3.1 1.2-.7 2.7-1.1 4.3-1.2.9-.1 1.4.4 1.5 1.4s-.4 1.6-1.6 1.7l-.7.1c-2 .2-3.5.8-4.6 1.9-1 1.1-1.6 2.6-1.6 4.5v10.5c.1 1.2-.5 1.8-1.6 1.8zm27.4-.3c-1.3 0-2-.7-2-2v-26.7c0-1.3.7-2 2-2h10.3c3.2 0 5.6.7 7.3 2.1 1.7 1.4 2.6 3.4 2.6 5.9 0 1.7-.4 3.1-1.3 4.3-.9 1.2-2.1 2.1-3.6 2.6 1.8.5 3.2 1.3 4.2 2.6 1 1.2 1.5 2.8 1.5 4.7 0 2.7-.9 4.8-2.7 6.3-1.8 1.4-4.3 2.2-7.5 2.2h-10.8zm1.5-17h8.3c4.6 0 6.9-1.8 6.9-5.4 0-3.6-2.3-5.4-6.9-5.4H736v10.8zm0 14.1h9c4.6 0 7-1.9 7-5.6 0-3.7-2.3-5.6-7-5.6h-9v11.2zm34.9 3.3c-3.3 0-6-1-7.9-2.9-1.9-2-2.9-4.6-2.9-8 0-2.2.4-4.1 1.3-5.8.9-1.7 2.1-3 3.6-3.9s3.3-1.4 5.3-1.4c2.9 0 5.1.9 6.7 2.8 1.6 1.8 2.4 4.4 2.4 7.6 0 .9-.5 1.3-1.5 1.3h-14.4c.1 2.4.8 4.2 2.1 5.5s3 1.9 5.3 1.9c1 0 1.9-.1 2.9-.4 1-.2 1.9-.7 2.9-1.3.7-.4 1.2-.5 1.7-.3.4.3.7.7.7 1.2s-.3 1-.9 1.4c-1 .7-2.1 1.2-3.4 1.6-1.3.5-2.6.7-3.9.7zm-.5-19.3c-2 0-3.6.6-4.7 1.9-1.2 1.2-1.8 2.9-2 4.9h12.8c-.1-2.1-.6-3.8-1.7-5-1.1-1.2-2.5-1.8-4.4-1.8zm22.6 19.3c-2.5 0-4.4-.7-5.6-2-1.2-1.3-1.9-3.2-1.9-5.7v-11.1h-2.9c-1 0-1.5-.5-1.5-1.4s.5-1.3 1.5-1.3h2.9v-5c0-1.2.6-1.8 1.8-1.8s1.7.6 1.7 1.8v5h5.5c1 0 1.5.4 1.5 1.3s-.5 1.4-1.5 1.4H789v10.7c0 1.7.3 2.9 1 3.8s1.8 1.3 3.4 1.3c.6 0 1-.1 1.4-.2s.7-.2 1-.2.5.1.7.3c.2.2.3.6.3 1 0 .3-.1.7-.2 1-.1.3-.4.5-.7.6s-.8.2-1.4.3c-.5.1-1 .2-1.5.2z"/><path class="st2" d="M807.7 267.5c-2.5 0-4.4-.7-5.6-2-1.2-1.3-1.9-3.2-1.9-5.7v-11.1h-2.9c-1 0-1.5-.5-1.5-1.4s.5-1.3 1.5-1.3h2.9v-5c0-1.2.6-1.8 1.8-1.8s1.7.6 1.7 1.8v5h5.5c1 0 1.5.4 1.5 1.3s-.5 1.4-1.5 1.4h-5.5v10.7c0 1.7.3 2.9 1 3.8s1.8 1.3 3.4 1.3c.6 0 1-.1 1.4-.2s.7-.2 1-.2.5.1.7.3c.2.2.3.6.3 1 0 .3-.1.7-.2 1-.1.3-.4.5-.7.6s-.8.2-1.4.3c-.6.1-1.1.2-1.5.2zm16 0c-3.3 0-6-1-7.9-2.9-1.9-2-2.9-4.6-2.9-8 0-2.2.4-4.1 1.3-5.8.9-1.7 2.1-3 3.6-3.9s3.3-1.4 5.3-1.4c2.9 0 5.1.9 6.7 2.8 1.6 1.8 2.4 4.4 2.4 7.6 0 .9-.5 1.3-1.5 1.3h-14.4c.1 2.4.8 4.2 2.1 5.5s3 1.9 5.3 1.9c1 0 1.9-.1 2.9-.4 1-.2 1.9-.7 2.9-1.3.7-.4 1.2-.5 1.7-.3.4.3.7.7.7 1.2s-.3 1-.9 1.4c-1 .7-2.1 1.2-3.4 1.6-1.4.5-2.7.7-3.9.7zm-.6-19.3c-2 0-3.6.6-4.7 1.9-1.2 1.2-1.8 2.9-2 4.9h12.8c-.1-2.1-.6-3.8-1.7-5-1-1.2-2.5-1.8-4.4-1.8zm16 19.2c-1.2 0-1.8-.6-1.8-1.8v-18.1c0-1.2.6-1.8 1.7-1.8 1.2 0 1.7.6 1.7 1.8v2.3c.6-1.3 1.5-2.4 2.7-3.1 1.2-.7 2.7-1.1 4.3-1.2.9-.1 1.4.4 1.5 1.4s-.4 1.6-1.6 1.7l-.7.1c-2 .2-3.5.8-4.6 1.9-1 1.1-1.6 2.6-1.6 4.5v10.5c.2 1.2-.4 1.8-1.6 1.8zm27.2 0c-1.2 0-1.8-.6-1.8-1.9V238c0-1.2.6-1.9 1.8-1.9s1.8.6 1.8 1.9v12h18.4v-12c0-1.2.6-1.9 1.8-1.9s1.8.6 1.8 1.9v27.5c0 1.2-.6 1.9-1.8 1.9s-1.8-.6-1.8-1.9v-12.4h-18.4v12.4c0 1.3-.6 1.9-1.8 1.9zm40.3.1c-3.3 0-6-1-7.9-2.9-1.9-2-2.9-4.6-2.9-8 0-2.2.4-4.1 1.3-5.8.9-1.7 2.1-3 3.6-3.9s3.3-1.4 5.3-1.4c2.9 0 5.1.9 6.7 2.8 1.6 1.8 2.4 4.4 2.4 7.6 0 .9-.5 1.3-1.5 1.3h-14.4c.1 2.4.8 4.2 2.1 5.5s3 1.9 5.3 1.9c1 0 1.9-.1 2.9-.4 1-.2 1.9-.7 2.9-1.3.7-.4 1.2-.5 1.7-.3.4.3.7.7.7 1.2s-.3 1-.9 1.4c-1 .7-2.1 1.2-3.4 1.6-1.3.5-2.6.7-3.9.7zm-.5-19.3c-2 0-3.6.6-4.7 1.9-1.2 1.2-1.8 2.9-2 4.9h12.8c-.1-2.1-.6-3.8-1.7-5-1.1-1.2-2.5-1.8-4.4-1.8zm20.8 19.3c-1.4 0-2.7-.3-3.9-.8s-2-1.3-2.7-2.3-1-2.1-1-3.3c0-1.5.4-2.8 1.2-3.7.8-.9 2.1-1.5 4-1.9 1.8-.4 4.4-.6 7.5-.6h1.4v-1.3c0-1.8-.4-3.1-1.1-3.9-.7-.8-1.9-1.2-3.5-1.2-1 0-2 .1-3.1.4-1 .3-2.1.7-3.2 1.3-.5.3-.9.3-1.2.2-.3-.2-.6-.4-.7-.8-.1-.4-.1-.7 0-1.1.1-.4.4-.7.8-.9 1.2-.6 2.5-1.1 3.8-1.4 1.3-.3 2.5-.4 3.6-.4 2.7 0 4.7.7 6.1 2 1.3 1.3 2 3.4 2 6.2v11.8c0 1.2-.5 1.8-1.6 1.8s-1.7-.6-1.7-1.8v-2.1c-.6 1.2-1.4 2.2-2.5 3-1.3.4-2.7.8-4.2.8zm.6-2.7c1.7 0 3.2-.6 4.3-1.8 1.1-1.2 1.7-2.7 1.7-4.6v-1.3H932c-2.3 0-4.2.1-5.5.3s-2.3.6-2.8 1.1-.8 1.3-.8 2.2c0 1.2.4 2.2 1.2 2.9.8.8 1.9 1.2 3.4 1.2zm22.2 2.7c-2.1 0-3.7-.6-4.8-1.9s-1.7-3.1-1.7-5.5v-22.2c0-1.2.6-1.8 1.7-1.8 1.2 0 1.8.6 1.8 1.8v21.9c0 3.1 1.2 4.6 3.7 4.6h1.3c.3 0 .5 0 .7.2.1.2.2.5.2 1 0 1-.5 1.5-1.5 1.7-.2.1-.5.1-.7.1-.2.1-.5.1-.7.1zm14.5 0c-2.5 0-4.4-.7-5.6-2-1.2-1.3-1.9-3.2-1.9-5.7v-11.1h-2.9c-1 0-1.5-.5-1.5-1.4s.5-1.3 1.5-1.3h2.9v-5c0-1.2.6-1.8 1.8-1.8s1.7.6 1.7 1.8v5h5.5c1 0 1.5.4 1.5 1.3s-.5 1.4-1.5 1.4h-5.5v10.7c0 1.7.3 2.9 1 3.8s1.8 1.3 3.4 1.3c.6 0 1-.1 1.4-.2s.7-.2 1-.2.5.1.7.3c.2.2.3.6.3 1 0 .3-.1.7-.2 1-.1.3-.4.5-.7.6s-.8.2-1.4.3c-.5.1-1 .2-1.5.2zm8.8-.1c-1.2 0-1.7-.6-1.7-1.8V238c0-1.2.6-1.8 1.7-1.8 1.2 0 1.8.6 1.8 1.8v11.5c.7-1.3 1.7-2.2 2.9-2.9 1.3-.7 2.7-1 4.2-1 5 0 7.5 2.8 7.5 8.3v11.6c0 1.2-.6 1.8-1.7 1.8-1.2 0-1.8-.6-1.8-1.8v-11.4c0-2-.4-3.4-1.2-4.3-.8-.9-2-1.4-3.7-1.4-1.9 0-3.5.6-4.6 1.8s-1.7 2.8-1.7 4.8v10.5c0 1.3-.6 1.9-1.7 1.9z"/><path class="st1" d="M1020.6 119.6c-2.5 0-4.7-.4-6.8-1.3s-3.9-2.1-5.5-3.7-2.8-3.4-3.7-5.5-1.3-4.4-1.3-6.8.4-4.7 1.3-6.8c.9-2.1 2.1-3.9 3.7-5.5s3.4-2.8 5.5-3.7c2.1-.9 4.4-1.3 6.8-1.3 2.5 0 4.7.4 6.8 1.3 2.1.9 3.9 2.1 5.5 3.7s2.8 3.4 3.7 5.5c.9 2.1 1.3 4.4 1.3 6.8s-.4 4.7-1.3 6.8c-.9 2.1-2.1 3.9-3.7 5.5s-3.4 2.8-5.5 3.7c-2.1.8-4.3 1.3-6.8 1.3zm0-2.6c2.8 0 5.3-.7 7.5-2s3.9-3.1 5.2-5.3c1.3-2.2 1.9-4.7 1.9-7.5s-.6-5.3-1.9-7.5-3-4-5.2-5.3-4.7-1.9-7.5-1.9-5.3.6-7.5 1.9-4 3.1-5.2 5.3c-1.3 2.2-1.9 4.7-1.9 7.5s.6 5.3 1.9 7.5c1.3 2.2 3 4 5.2 5.3 2.2 1.4 4.7 2 7.5 2z"/><path class="st1" d="M1014.2 108.1c-.4 0-.7-.1-.9-.3-.2-.2-.3-.5-.3-.9v-8.1h-2.8c-.7 0-1-.3-1-1s.3-1 1-1h8.2c.7 0 1 .3 1 1s-.3 1-1 1h-2.8v8.1c0 .4-.1.7-.3.9-.4.1-.7.3-1.1.3zm7.3 0c-.4 0-.6-.1-.8-.3-.2-.2-.3-.5-.3-.9v-9.3c0-.4.1-.7.3-.9.2-.2.5-.3.9-.3.3 0 .6.1.8.2s.4.3.5.6l3.4 6.3 3.4-6.3c.2-.3.3-.5.5-.6s.4-.2.7-.2c.4 0 .6.1.8.3.2.2.3.5.3.9v9.3c0 .8-.4 1.2-1.1 1.2-.8 0-1.1-.4-1.1-1.2V101l-2.6 4.7c-.1.2-.3.4-.4.5s-.3.2-.6.2c-.2 0-.4-.1-.6-.2s-.3-.3-.4-.5l-2.6-4.7v5.9c0 .8-.3 1.2-1.1 1.2z"/><image width="2083" height="125" xlink:href="../Mailer Footer.jpg" transform="matrix(.48 0 0 .48 242.948 991.211)" overflow="visible"/></svg>